<svg width="39" height="38" viewBox="0 0 39 38" fill="none" xmlns="http://www.w3.org/2000/svg">
<path opacity="0.5" d="M19.2416 7.7356C16.333 7.7356 14.4964 10.9921 10.823 17.505L10.3653 18.3166C7.31273 23.7288 5.78647 26.4349 7.1659 28.4136C8.54533 30.3923 11.9582 30.3923 18.7838 30.3923H19.6993C26.525 30.3923 29.9378 30.3923 31.3173 28.4136C32.6967 26.4349 31.1704 23.7288 28.1179 18.3166L27.6601 17.505C23.9868 10.9921 22.1501 7.7356 19.2416 7.7356Z" fill="#FF3900"/>
<path d="M19.2416 13.0851C19.763 13.0851 20.1856 13.5077 20.1856 14.0291V20.3226C20.1856 20.844 19.763 21.2667 19.2416 21.2667C18.7202 21.2667 18.2976 20.844 18.2976 20.3226V14.0291C18.2976 13.5077 18.7202 13.0851 19.2416 13.0851Z" fill="#FF3900"/>
<path d="M19.2416 25.3574C19.9368 25.3574 20.5003 24.7939 20.5003 24.0987C20.5003 23.4036 19.9368 22.84 19.2416 22.84C18.5465 22.84 17.9829 23.4036 17.9829 24.0987C17.9829 24.7939 18.5465 25.3574 19.2416 25.3574Z" fill="#FF3900"/>
</svg>
