<svg width="21" height="22" viewBox="0 0 21 22" fill="none" xmlns="http://www.w3.org/2000/svg">
<path opacity="0.5" d="M3.69336 10.9459C3.69336 14.67 6.71233 17.689 10.4364 17.689C14.1605 17.689 17.1795 14.67 17.1795 10.9459C17.1795 7.22185 14.1605 4.20288 10.4364 4.20288C6.71233 4.20288 3.69336 7.22185 3.69336 10.9459Z" fill="#F9FAFA"/>
<path d="M12.8169 10.292C13.0144 10.0945 13.0144 9.77434 12.8169 9.57684C12.6194 9.37934 12.2992 9.37934 12.1017 9.57684L10.4364 11.2421L8.77105 9.57684C8.57355 9.37934 8.25334 9.37934 8.05584 9.57684C7.85834 9.77434 7.85834 10.0945 8.05584 10.292L10.0788 12.315C10.2763 12.5125 10.5965 12.5125 10.794 12.315L12.8169 10.292Z" fill="#F9FAFA"/>
</svg>
