<svg width="21" height="21" viewBox="0 0 21 21" fill="none" xmlns="http://www.w3.org/2000/svg">
<path opacity="0.5" d="M10.4363 17.3725C7.25759 17.3725 5.66823 17.3725 4.68073 16.385C3.69324 15.3975 3.69324 13.8081 3.69324 10.6294C3.69324 7.4507 3.69324 5.86135 4.68073 4.87385C5.66823 3.88635 7.25759 3.88635 10.4363 3.88635C13.615 3.88635 15.2044 3.88635 16.1919 4.87385C17.1793 5.86135 17.1793 7.4507 17.1793 10.6294C17.1793 13.8081 17.1793 15.3975 16.1919 16.385C15.2044 17.3725 13.615 17.3725 10.4363 17.3725Z" fill="#F9FAFA"/>
<path d="M10.4362 8.10083C10.7155 8.10083 10.942 8.32725 10.942 8.60656V10.1238H12.4592C12.7385 10.1238 12.9649 10.3502 12.9649 10.6295C12.9649 10.9088 12.7385 11.1352 12.4592 11.1352H10.942L10.942 12.6524C10.942 12.9317 10.7155 13.1581 10.4362 13.1581C10.1569 13.1581 9.93051 12.9317 9.93051 12.6524V11.1352H8.41332C8.13402 11.1352 7.90759 10.9088 7.90759 10.6295C7.90759 10.3502 8.13402 10.1238 8.41332 10.1238H9.93051L9.93051 8.60656C9.93051 8.32725 10.1569 8.10083 10.4362 8.10083Z" fill="#F9FAFA"/>
</svg>
