<svg width="38" height="38" viewBox="0 0 38 38" fill="none" xmlns="http://www.w3.org/2000/svg">
<path opacity="0.5" d="M18.0568 31.4676H19.0748C22.5774 31.4676 24.3287 31.4676 25.4674 30.3267C26.6061 29.1858 26.7226 27.3145 26.9556 23.5717L27.2913 18.1787C27.4177 16.148 27.4809 15.1326 26.9097 14.4891C26.3385 13.8457 25.3738 13.8457 23.4445 13.8457H13.6871C11.7578 13.8457 10.7932 13.8457 10.2219 14.4891C9.65069 15.1326 9.7139 16.148 9.84032 18.1787L10.176 23.5717C10.409 27.3145 10.5255 29.1858 11.6642 30.3267C12.8029 31.4676 14.5542 31.4676 18.0568 31.4676Z" fill="#082567"/>
<path d="M7.23755 11.5382C7.23755 10.9589 7.67228 10.4893 8.20855 10.4893L11.562 10.4887C12.2283 10.4705 12.8161 10.0128 13.0429 9.33575C13.0488 9.31795 13.0557 9.296 13.0803 9.21632L13.2248 8.74797C13.3132 8.4608 13.3902 8.21062 13.498 7.98699C13.9239 7.10354 14.7118 6.49007 15.6224 6.333C15.8528 6.29324 16.0969 6.29341 16.3771 6.29361H20.7549C21.0351 6.29341 21.2791 6.29324 21.5096 6.333C22.4202 6.49007 23.2081 7.10354 23.634 7.98699C23.7418 8.21062 23.8188 8.4608 23.9072 8.74797L24.0517 9.21632C24.0763 9.296 24.0832 9.31795 24.0891 9.33575C24.3158 10.0128 25.0202 10.471 25.6865 10.4893H28.9232C29.4595 10.4893 29.8942 10.9589 29.8942 11.5382C29.8942 12.1175 29.4595 12.5871 28.9232 12.5871H8.20855C7.67228 12.5871 7.23755 12.1175 7.23755 11.5382Z" fill="#082567"/>
</svg>
