<svg width="35" height="35" viewBox="0 0 35 35" fill="none" xmlns="http://www.w3.org/2000/svg">
<path fill-rule="evenodd" clip-rule="evenodd" d="M17.2102 6.97116C11.4689 6.97116 6.81467 11.6254 6.81467 17.3667C6.81467 23.108 11.4689 27.7623 17.2102 27.7623C22.9515 27.7623 27.6058 23.108 27.6058 17.3667C27.6058 11.6254 22.9515 6.97116 17.2102 6.97116ZM5.12891 17.3667C5.12891 10.6944 10.5379 5.2854 17.2102 5.2854C23.8825 5.2854 29.2915 10.6944 29.2915 17.3667C29.2915 24.039 23.8825 29.448 17.2102 29.448C10.5379 29.448 5.12891 24.039 5.12891 17.3667ZM13.1615 21.3602C13.4387 20.9862 13.9666 20.9077 14.3406 21.1849C15.1591 21.7917 16.1472 22.143 17.2102 22.143C18.2733 22.143 19.2613 21.7917 20.0798 21.1849C20.4538 20.9077 20.9817 20.9862 21.2589 21.3602C21.5361 21.7341 21.4576 22.262 21.0837 22.5392C19.9908 23.3493 18.6543 23.8288 17.2102 23.8288C15.7661 23.8288 14.4296 23.3493 13.3368 22.5392C12.9628 22.262 12.8843 21.7341 13.1615 21.3602Z" fill="#02040F"/>
<path d="M21.7056 15.6809C21.7056 16.612 21.2024 17.3667 20.5817 17.3667C19.9611 17.3667 19.4579 16.612 19.4579 15.6809C19.4579 14.7499 19.9611 13.9952 20.5817 13.9952C21.2024 13.9952 21.7056 14.7499 21.7056 15.6809Z" fill="#02040F"/>
<path d="M14.9625 15.6809C14.9625 16.612 14.4594 17.3667 13.8387 17.3667C13.218 17.3667 12.7148 16.612 12.7148 15.6809C12.7148 14.7499 13.218 13.9952 13.8387 13.9952C14.4594 13.9952 14.9625 14.7499 14.9625 15.6809Z" fill="#02040F"/>
</svg>
