<svg width="52" height="52" viewBox="0 0 52 52" fill="none" xmlns="http://www.w3.org/2000/svg">
<rect x="0.915129" y="0.915129" width="49.417" height="49.417" rx="3.1307" stroke="#F9FAFA" stroke-width="1.83026"/>
<path fill-rule="evenodd" clip-rule="evenodd" d="M35.2325 20.1328C35.2325 20.5877 34.8638 20.9564 34.4089 20.9564L16.8385 20.9564C16.3836 20.9564 16.0148 20.5877 16.0148 20.1328C16.0148 19.6779 16.3836 19.3092 16.8385 19.3092L34.4089 19.3092C34.8638 19.3092 35.2325 19.6779 35.2325 20.1328Z" fill="#F2F6FA"/>
<path fill-rule="evenodd" clip-rule="evenodd" d="M35.2325 25.6235C35.2325 26.0784 34.8638 26.4471 34.4089 26.4471L16.8385 26.4471C16.3836 26.4471 16.0148 26.0784 16.0148 25.6235C16.0148 25.1687 16.3836 24.7999 16.8385 24.7999L34.4089 24.7999C34.8638 24.7999 35.2325 25.1687 35.2325 25.6235Z" fill="#F2F6FA"/>
<path fill-rule="evenodd" clip-rule="evenodd" d="M35.2325 31.1144C35.2325 31.5692 34.8638 31.938 34.4089 31.938L16.8385 31.938C16.3836 31.938 16.0148 31.5692 16.0148 31.1144C16.0148 30.6595 16.3836 30.2908 16.8385 30.2908L34.4089 30.2908C34.8638 30.2908 35.2325 30.6595 35.2325 31.1144Z" fill="#F2F6FA"/>
</svg>
