<svg width="128" height="151" viewBox="0 0 128 151" fill="none" xmlns="http://www.w3.org/2000/svg">
<g clip-path="url(#clip0_233_102)">
<path d="M65.6409 75.931C65.673 75.6244 65.7051 75.3122 65.7307 75C65.9102 75.9136 66.0897 76.8332 66.314 77.7353L67.2563 81.7429C67.5834 83.073 67.8973 84.4089 68.1859 85.7447C68.1939 85.7818 68.2151 85.8155 68.2464 85.8406C68.2777 85.8657 68.3173 85.8808 68.359 85.8835H68.3653C68.5576 85.9008 68.7435 85.9182 68.9358 85.9414L69 87.5317L68.3846 87.7514C66.0769 88.5842 63 87.0575 63 87.0575C63.1578 86.6389 63.2316 86.1982 63.218 85.7563C63.6761 84.7049 64.0552 83.6268 64.3526 82.5294C64.6603 81.448 64.921 80.3569 65.1347 79.2562C65.3525 78.1517 65.5192 77.0471 65.6409 75.931Z" fill="#020202"/>
<path d="M85.1486 42.7537V42.748C85.0387 42.5198 84.9866 42.4 84.9866 42.4L84.9808 42.3943C83.9434 41.8593 82.8159 41.5151 81.6534 41.3786C81.636 41.3786 81.6186 41.3729 81.607 41.3729C80.7495 41.2194 79.884 41.1127 79.0146 41.0533C78.9938 41.0483 78.9723 41.0464 78.951 41.0476C76.6535 40.8935 74.3447 41.0876 73.2567 42.0176L73.2509 42.0233C72.2551 42.8451 71.2118 43.6091 70.1261 44.3115C70.0972 44.3287 70.074 44.3515 70.045 44.3687C67.9617 45.7495 65.8728 46.9707 65.676 47.0848C65.6702 47.0905 65.6645 47.0963 65.6586 47.0963C63.6622 48.3402 62.5569 50.4915 61.9493 52.4487C61.9319 52.5001 61.9203 52.5457 61.9031 52.597C61.904 52.6088 61.902 52.6205 61.8972 52.6313C61.874 53.5614 61.822 54.4858 61.7469 55.4103C61.6194 56.9566 61.4149 58.4954 61.1334 60.0266C60.9945 60.797 60.8209 61.5559 60.6241 62.3148C60.426 63.097 60.1447 63.8563 59.785 64.5802C59.6114 64.9398 59.4031 65.2992 59.2121 65.6302C58.6765 66.58 58.3141 67.6152 58.1417 68.6887C57.9113 70.1458 57.9623 71.6327 58.292 73.0712C58.8397 75.32 59.7648 77.4627 61.0292 79.4107C61.0388 79.4207 61.0467 79.4323 61.0523 79.445C61.0755 79.4793 61.0987 79.5192 61.1218 79.5534C61.1507 79.5991 61.1854 79.6504 61.2144 79.7017C61.2318 79.7246 61.2433 79.7474 61.2607 79.7703C61.2668 79.7766 61.2709 79.7845 61.2723 79.7931C61.2893 79.8285 61.3086 79.8628 61.3301 79.8958C61.388 79.9984 61.4575 80.1126 61.5269 80.2381C61.6368 80.4436 61.7641 80.6775 61.8972 80.94V80.9457C61.9667 81.0769 62.0303 81.2139 62.0998 81.3508C62.1519 81.4535 62.1981 81.562 62.2445 81.6704C62.2966 81.7845 62.3486 81.9044 62.3949 82.0242C62.4119 82.055 62.4255 82.0875 62.4355 82.1212C62.5048 82.2924 62.5743 82.4693 62.6379 82.6462C62.6495 82.6804 62.6611 82.7089 62.6727 82.7432C62.719 82.8744 62.7652 83.0057 62.8058 83.1426C62.8077 83.1564 62.8116 83.1699 62.8174 83.1826C62.8214 83.1895 62.8234 83.1974 62.8231 83.2054C62.8304 83.2175 62.8344 83.2312 62.8347 83.2453C62.8695 83.3595 62.9042 83.4793 62.9388 83.5991C62.9331 83.6048 62.9388 83.6048 62.9388 83.6106V83.6163C62.9736 83.7475 63.0026 83.8787 63.0314 84.0157C63.0489 84.0955 63.0662 84.1812 63.0777 84.2667C63.0951 84.3694 63.1125 84.4722 63.1241 84.5749C63.1415 84.7289 63.1588 84.8773 63.1646 85.0257C63.1486 83.9852 63.1969 82.9448 63.3093 81.9101C63.4192 80.8144 63.5697 79.7188 63.7607 78.6347C63.9515 77.5504 64.1869 76.4719 64.4666 75.3992C64.6691 74.6289 64.8891 73.8642 65.1552 73.1053C64.9412 71.8613 64.7906 70.606 64.6403 69.3506C64.3653 66.6568 64.2782 63.9475 64.3798 61.242C64.437 59.8854 64.5839 58.534 64.8196 57.1963C64.8775 56.8653 64.9412 56.5286 65.0337 56.1977C65.1147 55.8667 65.1842 55.5357 65.2941 55.2162C65.4683 54.5534 65.7351 53.9177 66.087 53.3274C66.0941 53.3148 66.1059 53.3053 66.1199 53.3011C66.1339 53.2968 66.149 53.2981 66.1621 53.3046C66.1739 53.3125 66.1826 53.3242 66.1869 53.3377C66.1911 53.3512 66.1905 53.3657 66.1853 53.3788V53.3845C65.7243 54.6358 65.4514 55.9469 65.3752 57.2761C65.2496 58.6019 65.1935 59.9333 65.2074 61.2648C65.219 63.9297 65.4272 66.5887 65.6702 69.2536L66.0926 73.2422C66.2547 74.5718 66.3763 75.9071 66.5788 77.2366C66.7756 78.5605 66.9434 79.8958 67.198 81.2139C67.4526 82.4921 67.7072 83.7589 67.9849 85.0314C70.6005 85.2596 73.2452 85.3452 75.8666 85.3167C77.1976 85.2939 78.5286 85.2596 79.8422 85.1398C80.4889 85.0813 81.132 84.9899 81.7691 84.8659C82.2763 84.781 82.7665 84.6172 83.2216 84.3808L84.8881 70.5888L85.6984 63.5758C85.8141 62.4061 85.924 61.2363 86.0109 60.0665C86.115 58.891 86.1555 57.7212 86.1497 56.5457V56.54C86.1508 56.5252 86.1572 56.5112 86.1678 56.5007C86.1785 56.4903 86.1926 56.4839 86.2077 56.483C86.2221 56.4827 86.2361 56.4879 86.2468 56.4974C86.2575 56.5069 86.2642 56.5201 86.2655 56.5343C86.5131 58.8903 86.5731 61.2619 86.4449 63.6272C86.3696 65.9895 86.1961 68.3463 85.9993 70.7029C85.7851 73.0539 85.5595 75.4049 85.2586 77.7445C84.9808 80.0897 84.6219 82.4179 84.2806 84.7575L84.2748 84.7974C84.2656 84.858 84.2438 84.916 84.211 84.968C84.1781 85.02 84.1349 85.0649 84.0838 85.0998C83.4672 85.511 82.7618 85.7748 82.0237 85.8702V87C88.6207 86.7147 92.6599 84.2438 94.8531 82.2809V82.2752C95.4055 81.7885 95.9164 81.258 96.3808 80.6889C96.6083 80.415 96.8153 80.1251 97 79.8215C94.2744 67.1167 90.3053 54.7027 85.1486 42.7537ZM69.5706 83.0969C69.3457 83.089 69.1328 82.9954 68.9765 82.8358C68.8203 82.6761 68.7329 82.4629 68.7329 82.241C68.7329 82.0191 68.8203 81.8059 68.9765 81.6462C69.1328 81.4866 69.3457 81.393 69.5706 81.3851C69.7955 81.393 70.0085 81.4866 70.1647 81.6462C70.321 81.8059 70.4083 82.0191 70.4083 82.241C70.4083 82.4629 70.321 82.6761 70.1647 82.8358C70.0085 82.9954 69.7955 83.089 69.5706 83.0969ZM73.7369 83.3024C73.5121 83.2945 73.2991 83.2009 73.1428 83.0412C72.9866 82.8816 72.8993 82.6684 72.8993 82.4465C72.8993 82.2246 72.9866 82.0114 73.1428 81.8517C73.2991 81.6921 73.5121 81.5984 73.7369 81.5905C73.9618 81.5984 74.1748 81.6921 74.331 81.8517C74.4873 82.0114 74.5746 82.2246 74.5746 82.4465C74.5746 82.6684 74.4873 82.8816 74.331 83.0412C74.1748 83.2009 73.9618 83.2945 73.7369 83.3024ZM77.2785 83.3024C77.0537 83.2945 76.8407 83.2009 76.6844 83.0412C76.5282 82.8816 76.4409 82.6684 76.4409 82.4465C76.4409 82.2246 76.5282 82.0114 76.6844 81.8517C76.8407 81.6921 77.0537 81.5984 77.2785 81.5905C77.5034 81.5984 77.7164 81.6921 77.8726 81.8517C78.0289 82.0114 78.1162 82.2246 78.1162 82.4465C78.1162 82.6684 78.0289 82.8816 77.8726 83.0412C77.7164 83.2009 77.5034 83.2945 77.2785 83.3024H77.2785ZM80.8201 83.0969C80.5953 83.089 80.3823 82.9954 80.226 82.8358C80.0698 82.6761 79.9825 82.4629 79.9825 82.241C79.9825 82.0191 80.0698 81.8059 80.226 81.6462C80.3823 81.4866 80.5953 81.393 80.8201 81.3851C81.045 81.393 81.258 81.4866 81.4142 81.6463C81.5705 81.8059 81.6578 82.0191 81.6578 82.241C81.6578 82.4629 81.5705 82.6761 81.4142 82.8358C81.258 82.9954 81.045 83.089 80.8201 83.0969H80.8201Z" fill="#020202"/>
<path d="M28 1C28.3632 0.684138 28.7662 0.445233 29.1925 0.293047C29.6164 0.13102 30.0547 0.0343684 30.4976 0.00527355C30.9475 -0.0190222 31.3978 0.040728 31.8333 0.182528C32.2721 0.327065 32.6738 0.608501 33 1C32.586 0.904279 32.1679 0.838571 31.7478 0.803219C31.3397 0.786359 30.9353 0.785536 30.5269 0.810888C29.7063 0.851291 28.8882 0.972866 28 1Z" fill="#020202"/>
<path d="M53.5 24C53.6342 23.991 53.7613 23.8817 53.8546 23.6952C53.9479 23.5086 54 23.2594 54 23C54 22.7406 53.9479 22.4914 53.8546 22.3048C53.7613 22.1183 53.6342 22.009 53.5 22C53.3658 22.009 53.2387 22.1183 53.1454 22.3048C53.0521 22.4914 53 22.7406 53 23C53 23.2594 53.0521 23.5086 53.1454 23.6952C53.2387 23.8817 53.3658 23.991 53.5 24Z" fill="#020202"/>
<path d="M53.322 12.2039C54.4279 14.065 55.6512 15.8504 56.9843 17.5488C57.6498 18.3913 58.377 19.1808 59.1596 19.9105C59.5436 20.2691 59.9603 20.5893 60.4039 20.8668C60.806 21.1438 61.2774 21.2972 61.7621 21.3088L61.5511 21.4272C61.9186 20.8814 62.3571 20.3893 62.8545 19.9644C63.3709 19.4974 64.0063 19.19 64.6869 19.0779C65.0516 19.0491 65.4181 19.1002 65.762 19.2278C66.1059 19.3554 66.4192 19.5565 66.681 19.8177C67.1913 20.3115 67.5559 20.9418 67.7331 21.637C67.8931 22.307 67.9328 23.0012 67.8502 23.6858C67.7925 24.363 67.6453 25.0291 67.4126 25.6658C67.164 26.3567 66.7236 26.9584 66.1454 27.3972C65.537 27.8159 64.8104 28.0175 64.0784 27.971L64.6031 27.4783C64.3573 32.7446 63.9809 38.0159 63.8903 43.2836C63.8885 43.9409 63.877 44.5997 63.9075 45.2529C63.9104 45.583 63.9453 45.9015 63.9711 46.2238C63.9897 46.5274 64.0757 46.8226 64.2225 47.0871C64.2741 47.2149 64.3536 47.3289 64.4551 47.4202C64.5566 47.5115 64.6772 47.5778 64.8077 47.6138C65.0989 47.6439 65.3929 47.604 65.6663 47.4975C66.2616 47.2775 66.8335 46.996 67.3729 46.6573C69.5495 45.2498 71.6492 43.7216 73.6623 42.0793L73.6657 42.0766C73.6779 42.0672 73.6911 42.0594 73.7051 42.0532C76.4731 40.8972 79.5214 40.6372 82.4385 41.3084C82.7971 41.4122 83.1645 41.491 83.5172 41.6171L84.5573 41.994C84.8469 42.1131 85.1535 42.1834 85.4651 42.2021C85.7421 42.1875 85.8745 42.121 85.9713 41.9323C86.0716 41.6582 86.107 41.3638 86.0747 41.073C86.0522 40.7295 86.0022 40.3886 85.9251 40.0535C85.7601 39.3537 85.551 38.6656 85.2992 37.9933C84.7891 36.6251 84.2096 35.2851 83.5632 33.9785L83.319 33.4899C83.2743 33.4048 83.2406 33.33 83.2028 33.2709L83.0654 33.0433L82.4956 32.0922L81.3661 30.1847C79.8686 27.6356 78.3942 25.0725 77.0218 22.4358C76.683 21.7726 76.3433 21.1102 76.0236 20.4296C75.6687 19.7198 75.3842 18.9756 75.1743 18.2079L75.1143 17.831L75.0985 17.5991C75.0933 17.4509 75.0538 17.2723 75.0343 17.11C74.9689 16.7717 74.8899 16.4309 74.79 16.0914C74.5923 15.409 74.3422 14.7436 74.0422 14.1014C72.9643 11.4508 70.9015 9.34607 68.3069 8.2494C66.9905 7.7408 65.5741 7.56196 64.1762 7.72786C62.7383 7.83654 61.3092 8.0436 59.8984 8.34763C58.4813 8.64978 57.0833 9.03912 55.7121 9.51354C55.3705 9.6363 55.0244 9.74719 54.6871 9.88246C54.3478 9.99484 54.0188 10.1376 53.704 10.3089C53.4195 10.5183 53.2224 10.8293 53.1516 11.1803C53.0809 11.5313 53.1417 11.8966 53.322 12.2039ZM53.225 12.2648C53.0249 11.9313 52.9548 11.5331 53.0286 11.1492C53.1024 10.7653 53.3146 10.4237 53.6232 10.1924C53.9455 10.0092 54.2835 9.85665 54.633 9.73655L55.6526 9.34047C57.0175 8.82577 58.4098 8.38661 59.8178 7.99704C61.2321 7.6135 62.6697 7.32643 64.1213 7.13774C65.6101 6.87898 67.1378 6.98584 68.5783 7.4495C70.0317 7.92889 71.3547 8.75041 72.4409 9.84795C73.5264 10.93 74.4176 12.1986 75.0738 13.5959C75.4075 14.2894 75.6872 15.0087 75.9103 15.7472C76.0237 16.1174 76.1174 16.4974 76.1965 16.8864C76.2253 17.0915 76.2692 17.2763 76.2835 17.4988L76.3066 17.8218C76.3243 17.8786 76.339 17.9345 76.3509 17.9911C76.5558 18.6451 76.8142 19.2803 77.1233 19.89C77.4308 20.5479 77.764 21.2005 78.0961 21.8533C79.4595 24.4528 80.8923 27.0297 82.3446 29.5932L83.4433 31.5107L83.9974 32.4662L84.1422 32.7145C84.2004 32.8128 84.2419 32.9075 84.2821 32.9863L84.5261 33.4925C85.1755 34.8427 85.7482 36.2301 86.2413 37.6477C86.4909 38.3686 86.6944 39.1053 86.8506 39.8532C86.9298 40.243 86.9773 40.6389 86.9925 41.0367C87.0261 41.4884 86.9466 41.9413 86.7617 42.3529C86.6921 42.469 86.6129 42.5789 86.5252 42.6814C86.4251 42.7789 86.3124 42.8619 86.1901 42.9278C85.9611 43.0368 85.7108 43.0906 85.4583 43.085C85.0441 43.059 84.6378 42.9571 84.2589 42.7842L83.261 42.3777C82.9335 42.2454 82.5905 42.1592 82.2554 42.0468C79.4908 41.2962 76.5665 41.4414 73.8861 42.4624L73.9286 42.4365C71.8517 44.0103 69.7805 45.5965 67.5472 46.9623C66.9886 47.3194 66.3955 47.6168 65.7774 47.8498C65.4459 47.9803 65.0884 48.0268 64.7356 47.9853C64.5521 47.94 64.3808 47.8538 64.2337 47.733C64.0866 47.6122 63.9673 47.4597 63.8845 47.2864C63.7062 46.9789 63.5955 46.6354 63.5602 46.2798C63.5246 45.945 63.4804 45.6078 63.4694 45.2773C63.4268 44.6121 63.4054 43.9506 63.3817 43.2879C63.3156 40.64 63.3327 37.996 63.3644 35.3524C63.3948 32.7085 63.4628 30.0676 63.5887 27.4258L63.5893 27.4121C63.5957 27.2784 63.6538 27.1528 63.7507 27.0629C63.8477 26.9729 63.9756 26.9261 64.1064 26.9326L64.1135 26.933C64.6321 26.9663 65.1467 26.8222 65.5764 26.5235C66.006 26.2247 66.3262 25.7883 66.4865 25.2829C66.6926 24.7372 66.8262 24.1657 66.8836 23.5836C66.9746 23.0144 66.964 22.4331 66.8524 21.8677C66.6233 20.8088 65.7663 19.7762 64.7493 19.8311C63.7093 19.9227 62.7104 20.8253 61.9959 21.7437L61.9765 21.7686C61.9535 21.798 61.9243 21.8217 61.8911 21.8379C61.8579 21.8541 61.8215 21.8624 61.7847 21.8623C61.1973 21.8305 60.632 21.6227 60.1592 21.265C59.7073 20.9496 59.286 20.5905 58.9012 20.1928C58.1485 19.4088 57.4489 18.5732 56.8075 17.6919C55.5158 15.9483 54.3398 14.1249 53.225 12.2648V12.2648Z" fill="#020202"/>
<path d="M64 29C63.8852 29.5509 63.7126 30.0881 63.4848 30.6027C63.2641 31.1202 63.0008 31.6186 62.6978 32.0927C62.3929 32.5776 62.0238 33.0188 61.6004 33.4045C61.3818 33.6028 61.1334 33.7657 60.8644 33.8873C60.7307 33.9521 60.5855 33.9898 60.4371 33.9982C60.2887 34.0066 60.1402 33.9855 60 33.9361C60.2585 33.8859 60.5043 33.7844 60.723 33.6378C60.9418 33.4912 61.1291 33.3024 61.2739 33.0824C61.6101 32.665 61.921 32.2278 62.205 31.7732C62.799 30.8654 63.3435 29.9176 64 29Z" fill="#020202"/>
<path d="M62.6863 82.5652C62.8595 82.9786 62.9653 83.4163 63 83.8622C62.5381 85.047 60.4966 89 60.4966 89C60.1824 88.9392 59.8838 88.817 59.6184 88.6406C56.9666 87.0909 51.5149 80.9423 49.6502 78.7863L49.6102 78.7469C49.6002 78.731 49.5887 78.7159 49.576 78.702C49.2111 78.2808 49 78.0338 49 78.0338C56.4934 69.746 58.1356 58.5272 58.9568 52.9683C59.7779 47.4094 61.905 46 61.905 46L61.9392 47.1343C61.9337 46.9826 61.9164 46.8366 61.905 46.685C61.9059 46.7021 61.904 46.7191 61.8994 46.7356C61.7512 49.7509 61.4775 52.7418 61.0783 55.7084C60.8615 57.1964 60.6106 58.6788 60.2913 60.1387C60.1373 60.8742 59.9433 61.593 59.7552 62.3117C59.5698 63.0114 59.3078 63.6891 58.9739 64.3332C58.8142 64.6587 58.6374 64.962 58.4379 65.2989C58.236 65.6477 58.0588 66.0098 57.9076 66.3826C57.6012 67.1253 57.3886 67.9023 57.2745 68.696C57.0438 70.2651 57.1389 71.8639 57.554 73.3958C57.965 74.8978 58.5828 76.3373 59.3902 77.6744C59.5956 78.0001 59.7838 78.337 60.0004 78.6571L60.6676 79.6004C61.1124 80.2181 61.6313 80.7796 62.1104 81.3691C62.3331 81.7527 62.5256 82.1526 62.6863 82.5652Z" fill="#020202"/>
<path d="M63 83.6725C62.9941 83.6781 63 83.6781 63 83.6838V83.6894C62.9811 83.7967 62.9476 83.9011 62.9005 84C62.9209 83.761 62.915 83.5206 62.8829 83.2829C62.8831 83.275 62.8811 83.2672 62.877 83.2603C62.8712 83.2477 62.8672 83.2344 62.8653 83.2207C62.8242 83.0852 62.7775 82.9554 62.7305 82.8255C62.7188 82.7916 62.7071 82.7633 62.6954 82.7295C62.631 82.5545 62.5606 82.3794 62.4904 82.21C62.4803 82.1767 62.4665 82.1445 62.4493 82.114C62.4024 81.9954 62.3498 81.8768 62.297 81.7638C62.2501 81.6566 62.2033 81.5493 62.1506 81.4476C62.0802 81.3121 62.0158 81.1766 61.9455 81.0468V81.0411C61.8107 80.7813 61.6819 80.5498 61.5706 80.3466C61.5004 80.2223 61.43 80.1094 61.3713 80.0078C61.3496 79.9751 61.3301 79.9412 61.3128 79.9061C61.3113 79.8977 61.3073 79.8898 61.3011 79.8836C61.2835 79.861 61.2718 79.8384 61.2542 79.8158C61.2248 79.765 61.1897 79.7142 61.1605 79.669C61.137 79.6351 61.1136 79.5956 61.0901 79.5617C61.0844 79.5492 61.0765 79.5377 61.0667 79.5278C59.7867 77.6001 58.8501 75.4798 58.2956 73.2544C57.9618 71.8309 57.9102 70.3595 58.1434 68.9176C58.318 67.8553 58.6848 66.8309 59.2271 65.891C59.4205 65.5635 59.6314 65.2078 59.8071 64.852C60.1713 64.1356 60.456 63.3842 60.6566 62.6102C60.8559 61.8592 61.0316 61.1083 61.1722 60.3459C61.4593 58.8326 61.6663 57.3099 61.7933 55.7777C61.8694 54.8629 61.922 53.9482 61.9455 53.0277C61.9503 53.0171 61.9524 53.0054 61.9515 52.9938C61.963 52.6663 61.9689 52.3332 61.9748 52L61.9982 52.847L63 83.6725Z" fill="#020202"/>
<path d="M63.5 87C63.8481 87.6415 64.0169 88.3191 63.9983 89C64.019 89.6811 63.8502 90.3588 63.5 91C63.1498 90.3588 62.981 89.6811 63.0017 89C62.9831 88.3191 63.1519 87.6415 63.5 87Z" fill="#020202"/>
<path d="M81.71 85.039C82.2566 86.9139 82.5731 88.8506 82.6522 90.8049C82.797 92.7479 82.8926 94.6929 82.9389 96.6402C82.985 98.5866 83.0047 100.533 82.998 102.48C83.018 104.429 82.8823 106.379 82.82 108.318L82.2691 119.969L81.9929 125.795L81.6696 131.618L81.649 131.446C81.9237 132.37 82.0046 133.343 81.8864 134.3C81.7557 135.27 81.3912 136.192 80.8256 136.983C80.7882 137.034 80.7466 137.087 80.6978 137.143L80.5885 137.267L80.3683 137.514L79.927 138.007L79.0443 138.994L77.2788 140.967L76.3959 141.954L75.9544 142.448L75.7337 142.695C75.6735 142.77 75.6132 142.841 75.5543 142.928C75.0814 143.659 74.6454 144.414 74.248 145.19C73.4471 146.793 72.5393 148.337 71.5309 149.813C71.2581 150.203 70.9213 150.542 70.5353 150.815C70.4162 150.904 70.2785 150.962 70.1333 150.987C69.9881 151.011 69.8392 151.001 69.6984 150.957C69.6272 150.924 69.5586 150.886 69.493 150.842L69.3374 150.69C69.2578 150.584 69.1953 150.475 69.1262 150.366C68.925 149.921 68.8414 149.43 68.8839 148.942C68.9112 148.48 68.9902 148.023 69.1196 147.58C69.3686 146.71 69.6987 145.867 70.1053 145.062L70.4121 144.463C70.5152 144.287 70.5919 144.097 70.6397 143.898C70.6852 143.705 70.6939 143.506 70.6653 143.31C70.6524 143.136 70.5778 142.972 70.4553 142.849C70.2389 142.668 69.7692 142.837 69.4595 143.06C69.1325 143.328 68.8456 143.644 68.6079 143.997C68.0594 144.693 67.5119 145.39 66.9496 146.075C66.3889 146.762 65.8147 147.438 65.2112 148.091C64.9109 148.419 64.599 148.737 64.2754 149.047C64.1118 149.2 63.944 149.35 63.7677 149.493C63.6752 149.562 63.5887 149.635 63.4878 149.699C63.438 149.734 63.3863 149.766 63.3329 149.795C63.2625 149.838 63.1847 149.867 63.1037 149.881L63.1337 149.877C62.5872 150.018 62.0237 150.079 61.4604 150.057C61.1579 150.046 60.8618 149.965 60.5938 149.822C60.4505 149.743 60.3242 149.636 60.2223 149.507C60.1205 149.377 60.0451 149.228 60.0006 149.069C59.9309 148.769 59.9211 148.458 59.9717 148.155C60.0222 147.851 60.1322 147.561 60.2951 147.302C60.4478 147.053 60.6292 146.824 60.8356 146.619L61.3951 146.016L63.633 143.602L64.7519 142.395C65.1267 142.02 65.4763 141.62 65.7982 141.197C65.9317 140.992 66.0342 140.768 66.1023 140.533C66.1701 140.358 66.1834 140.165 66.1404 139.982C66.1615 139.956 65.9817 139.909 65.7504 139.969C65.5242 140.023 65.3091 140.117 65.1147 140.246C64.7019 140.575 64.307 140.927 63.9316 141.299C63.5276 141.675 63.1076 142.035 62.6908 142.398C61.8456 143.122 60.9569 143.791 60.03 144.403C59.5561 144.712 59.0616 144.988 58.5499 145.227C58.2855 145.351 58.0131 145.457 57.7345 145.543C57.5885 145.589 57.44 145.626 57.2898 145.655C57.1031 145.693 56.9116 145.701 56.7224 145.678L56.8899 145.68C56.5371 145.756 56.174 145.771 55.8164 145.722C55.5905 145.688 55.3762 145.599 55.1923 145.461C54.9889 145.301 54.8437 145.077 54.7798 144.823C54.6932 144.419 54.7278 143.997 54.8791 143.612C55.0131 143.253 55.2221 142.929 55.4916 142.66C55.6203 142.532 55.7597 142.415 55.9082 142.312L56.283 142.041L57.0312 141.499L58.5215 140.406C59.5116 139.674 60.5017 138.94 61.4623 138.183C61.9289 137.832 62.3713 137.448 62.7864 137.035C62.8253 136.996 62.8598 136.952 62.8892 136.905L62.9303 136.847C62.9323 136.837 62.9359 136.827 62.9411 136.817C62.9524 136.802 62.9468 136.805 62.9415 136.822C62.9438 136.842 62.9449 136.863 62.9446 136.883C62.9536 136.913 62.9647 136.942 62.9777 136.971C63.0011 137 63.0106 137.01 63.0139 137.016C62.8468 136.963 62.672 136.939 62.497 136.946L62.7177 136.889L58.2538 139.171L56.0219 140.312L55.4639 140.597C55.2746 140.689 55.1117 140.788 54.8517 140.894C54.3526 141.098 53.8048 141.144 53.2798 141.025C52.983 140.96 52.7055 140.824 52.4699 140.629C52.3298 140.507 52.2159 140.356 52.1352 140.187C52.0545 140.018 52.0088 139.834 52.0009 139.646C51.992 139.342 52.0487 139.041 52.1672 138.763C52.272 138.507 52.4159 138.27 52.5936 138.06C52.925 137.694 53.3238 137.399 53.7672 137.19L54.8613 136.576L59.2376 134.119L63.6138 131.663L65.8018 130.434L66.3489 130.127C66.519 130.024 66.6623 129.92 66.8215 129.818C67.1292 129.609 67.4125 129.364 67.6657 129.089C68.6295 127.834 69.2371 126.334 69.4226 124.751C69.6703 123.124 69.7102 121.472 69.5413 119.835L69.5379 119.8L69.5377 119.798L69.0576 111.118L68.6086 102.439L68.3906 98.1001C68.3359 97.3777 68.3513 96.6527 68.3639 95.9278L68.4034 93.7535L68.5679 85.0608C68.5682 85.0456 68.5743 85.0312 68.585 85.0205C68.5956 85.0099 68.6099 85.0039 68.6248 85.0039C68.6397 85.0039 68.654 85.0099 68.6647 85.0205C68.6753 85.0312 68.6814 85.0456 68.6817 85.0608L68.8463 93.7431L68.8857 95.9125C68.892 96.6358 68.8956 97.359 68.9691 98.0804L69.3004 102.411L69.9501 111.071L70.5685 119.73L70.5648 119.693C70.7751 121.432 70.7613 123.191 70.5237 124.926C70.3317 126.734 69.6377 128.45 68.5232 129.871C68.2096 130.217 67.8579 130.525 67.475 130.788C67.2834 130.915 67.0842 131.052 66.8969 131.166L66.3514 131.474L64.1695 132.709L59.8057 135.179L55.442 137.649L54.3511 138.267C54.0341 138.408 53.7462 138.61 53.5027 138.861C53.4067 138.971 53.3285 139.097 53.2708 139.232C53.2204 139.343 53.1928 139.464 53.1897 139.586C53.1994 139.667 53.1979 139.669 53.2446 139.716C53.3365 139.785 53.4418 139.833 53.5535 139.857C53.8471 139.923 54.1534 139.897 54.4327 139.784C54.5607 139.736 54.7621 139.627 54.9479 139.536L55.5085 139.256L57.7505 138.136L62.2345 135.896L62.2484 135.889C62.313 135.857 62.3836 135.84 62.4554 135.838C62.6468 135.834 62.8382 135.849 63.0268 135.882C63.2725 135.917 63.5052 136.016 63.7027 136.169C63.8631 136.298 63.9707 136.484 64.005 136.689C64.0319 136.865 64.0111 137.045 63.9448 137.21C63.919 137.272 63.8909 137.335 63.8613 137.393L63.7714 137.528C63.7165 137.611 63.6541 137.69 63.5852 137.762C63.1235 138.223 62.6285 138.649 62.1045 139.035C61.1168 139.797 60.1181 140.528 59.1128 141.25L57.5993 142.323L56.84 142.855L56.4597 143.121C56.3535 143.191 56.2537 143.271 56.1615 143.36C55.9872 143.527 55.8507 143.73 55.7613 143.956C55.6789 144.154 55.6505 144.37 55.6792 144.583C55.7147 144.706 55.7537 144.749 55.975 144.804C56.2268 144.837 56.4821 144.828 56.731 144.777L56.8988 144.778C56.8624 144.773 56.9452 144.779 56.9828 144.775L57.142 144.756C57.259 144.736 57.3747 144.708 57.4887 144.674C57.7309 144.603 57.968 144.515 58.1984 144.411C58.6772 144.196 59.141 143.947 59.5863 143.667C60.4971 143.097 61.3723 142.47 62.2067 141.789C62.6237 141.444 63.0441 141.101 63.4509 140.741L64.061 140.199C64.2738 139.995 64.5048 139.811 64.7509 139.649C65.0167 139.482 65.3092 139.365 65.6152 139.301C65.7849 139.263 65.9596 139.255 66.132 139.277C66.2492 139.289 66.362 139.33 66.4612 139.395C66.5604 139.46 66.6433 139.547 66.7033 139.651C66.7963 139.834 66.8314 140.042 66.8038 140.246C66.7867 140.406 66.7539 140.564 66.7058 140.718C66.6135 141.012 66.4789 141.291 66.3063 141.545C65.9568 141.992 65.5763 142.413 65.1677 142.804L64.0241 143.987L61.7368 146.352C61.3503 146.717 60.9937 147.113 60.6705 147.537C60.5343 147.741 60.4403 147.972 60.3942 148.214C60.348 148.457 60.3507 148.706 60.402 148.948C60.486 149.168 60.6373 149.354 60.8334 149.48C61.0296 149.605 61.2602 149.663 61.4911 149.645C62.0146 149.667 62.5384 149.613 63.0471 149.486L63.0774 149.481C63.0427 149.485 63.1207 149.463 63.1502 149.441C63.1936 149.418 63.2356 149.393 63.276 149.365C63.3613 149.312 63.4446 149.243 63.5289 149.181C63.6952 149.048 63.8572 148.906 64.0169 148.759C64.3334 148.461 64.6414 148.151 64.9409 147.83C65.5414 147.19 66.1171 146.522 66.6799 145.844C67.2464 145.168 67.7968 144.478 68.3309 143.774C68.5859 143.389 68.8952 143.046 69.2488 142.753C69.4443 142.61 69.6629 142.502 69.8947 142.435C70.0256 142.39 70.165 142.375 70.3022 142.394C70.4394 142.412 70.5706 142.462 70.6856 142.54C70.8896 142.721 71.019 142.973 71.0478 143.247C71.0867 143.493 71.0786 143.744 71.0241 143.987C70.9705 144.222 70.8832 144.448 70.7651 144.657L70.4709 145.246C70.0846 146.031 69.7727 146.851 69.5395 147.696C69.4231 148.109 69.3536 148.534 69.3322 148.963C69.2977 149.367 69.3709 149.772 69.5441 150.137C69.7589 150.518 69.9411 150.603 70.2666 150.375C70.5906 150.126 70.8714 149.823 71.0977 149.479C72.049 148.002 72.9007 146.461 73.6468 144.865C74.0379 144.05 74.4709 143.257 74.9441 142.489C75.0067 142.391 75.0857 142.29 75.1619 142.191L75.3768 141.938L75.8066 141.433L76.6662 140.422L80.078 136.403C80.5379 135.741 80.832 134.974 80.9346 134.169C81.0271 133.351 80.9506 132.523 80.7099 131.737C80.6936 131.682 80.6867 131.623 80.6893 131.565L80.975 125.743L81.3078 119.922L81.9749 108.282C82.0839 106.337 82.2652 104.409 82.2917 102.469C82.3422 100.529 82.3689 98.5885 82.372 96.6471C82.3696 94.7066 82.3676 92.7652 82.2894 90.8272C82.2492 89.8585 82.193 88.8906 82.1017 87.9268C82.0342 86.9637 81.8676 86.0104 81.6046 85.0828L81.6026 85.0766C81.5977 85.0621 81.5987 85.0462 81.6053 85.0324C81.6119 85.0186 81.6237 85.0081 81.6379 85.0031C81.6522 84.9982 81.6678 84.9991 81.6813 85.0059C81.6948 85.0126 81.7051 85.0246 81.71 85.0391L81.71 85.039Z" fill="#020202"/>
<path d="M68.9988 125.126C69.1035 130.888 62.2094 132.68 62.2094 132.68C62.2094 132.68 25.104 138.828 22.3116 124.584C19.5191 110.341 36.4136 104.256 36.4136 104.256C65.5954 87.5226 67.7712 90.1501 67.7712 90.1501L67.7015 97.0243C67.708 101.874 67.9857 106.72 68.5334 111.539C68.5334 111.539 68.7893 117.019 68.9348 122.182C66.8055 121.761 64.6645 121.444 62.5236 121.168C60.2839 120.868 58.044 120.632 55.7983 120.413C53.5528 120.217 51.3071 120.032 49.0557 119.917C46.8042 119.796 44.5469 119.716 42.278 119.744C44.5004 120.188 46.7344 120.522 48.9683 120.816C51.2082 121.116 53.4481 121.346 55.6936 121.559C57.9392 121.755 60.1849 121.94 62.4364 122.055C64.5948 122.176 66.7589 122.257 68.9348 122.234C68.9639 123.225 68.9813 124.198 68.9988 125.126Z" fill="#020202"/>
<path d="M61.1068 79.4239L61.2897 79.6784L61.2841 79.6698L61.335 79.7359L61.3276 79.7275C61.3389 79.7376 61.348 79.7498 61.3544 79.7634C61.3607 79.777 61.3643 79.7918 61.3648 79.8067L61.356 79.7707L61.4154 79.8616L61.4193 79.8678C61.6487 80.2005 61.8488 80.55 62.0535 80.8976C62.0629 80.9135 62.0682 80.9313 62.0691 80.9495L62.0698 80.9653L62.07 80.971L62.0526 80.9011C62.2561 81.2541 62.4419 81.6133 62.6163 81.9869L62.6003 81.9545C62.6689 82.0911 62.6995 82.1718 62.7423 82.2658L62.865 82.5443C62.9469 82.7281 63.016 82.9249 63.0915 83.1166L63.1021 83.1886C63.0921 83.0931 63.0891 83.125 63.1021 83.1468L63.0878 83.1131C63.0977 83.1318 63.1056 83.1516 63.1114 83.1719C63.1186 83.1981 63.1224 83.2251 63.1227 83.2523L63.0946 83.1355C63.1209 83.1838 63.1352 83.2376 63.1364 83.2924L63.1251 83.2171L63.2466 83.5733L63.1749 83.8462C63.1836 83.8256 63.2156 83.8366 63.2524 83.6922C63.2604 83.6332 63.2491 83.5733 63.2202 83.521C63.209 83.5026 63.2162 83.5131 63.2267 83.5328C63.2461 83.5735 63.2568 83.6176 63.258 83.6625L63.2581 83.6671L63.249 83.5968C63.3961 84.0956 63.4931 84.6073 63.5388 85.1247C63.5575 85.3922 63.5548 85.6608 63.5309 85.9279C63.5023 86.2014 63.4475 86.4716 63.3672 86.735L63.191 86.2841C63.5996 86.4782 64.0228 86.6412 64.4569 86.7716C64.8897 86.902 65.3328 86.9969 65.7817 87.0553C66.2126 87.1141 66.6498 87.1124 67.0802 87.0504C67.2842 87.0188 67.4844 86.9668 67.6775 86.895L68.3397 86.6284L68.015 87.101L67.9345 85.3305C67.9314 85.2596 67.9438 85.1888 67.971 85.123C67.9983 85.0572 68.0396 84.998 68.0923 84.9492C68.145 84.9005 68.2077 84.8635 68.2763 84.8407C68.3449 84.8179 68.4177 84.8098 68.4897 84.817L68.5041 84.8186C69.6567 84.9418 70.8109 85.0436 71.9638 85.1422C73.1174 85.2379 74.2709 85.3142 75.4243 85.3713C76.5775 85.4307 77.7323 85.4701 78.8823 85.4377C80.0166 85.4361 81.147 85.308 82.2517 85.0558L82.2869 85.0463C82.3218 85.0369 82.3582 85.0343 82.3941 85.0387C82.4299 85.0431 82.4646 85.0544 82.496 85.0719C82.5275 85.0894 82.5551 85.1129 82.5773 85.1408C82.5995 85.1688 82.6159 85.2008 82.6255 85.235C82.6326 85.261 82.6359 85.288 82.6352 85.3149L82.6155 85.9427L82.6126 85.9045L82.7554 87.0498L82.5177 86.858C83.6776 86.8284 84.8339 86.719 85.9782 86.5303C87.1195 86.33 88.241 86.0328 89.3298 85.642C91.4989 84.8553 93.4798 83.6397 95.1494 82.0707L95.0372 82.3191L95.037 82.3134C95.0357 82.2696 95.0438 82.226 95.0607 82.1854C95.0777 82.1449 95.1031 82.1082 95.1354 82.0779L95.1508 82.0634C95.5451 81.6961 95.9169 81.3062 96.2642 80.8959C96.4369 80.6908 96.6028 80.4819 96.7579 80.2684C96.91 80.0624 97.0501 79.8482 97.1774 79.6266L97.1314 79.9257C96.7279 78.3396 96.3618 76.7458 95.93 75.1675C95.5275 73.5824 95.1039 72.0028 94.659 70.4289C93.7699 67.281 92.8302 64.1483 91.864 61.0227C90.8786 57.9035 89.9078 54.7767 88.8131 51.6892C87.7559 48.5888 86.6357 45.5072 85.4524 42.4444L85.4494 42.4364C85.4464 42.4288 85.4451 42.4206 85.4455 42.4125L85.4458 42.4068L85.4535 42.4402L85.3069 42.078C85.3012 42.0638 85.3014 42.048 85.3076 42.034C85.3138 42.02 85.3254 42.0089 85.3398 42.0033C85.3539 41.9986 85.3692 41.9989 85.3829 42.0043C85.3967 42.0097 85.4081 42.0198 85.4149 42.0326L85.5974 42.3732C85.6017 42.3812 85.6042 42.39 85.6047 42.399L85.6051 42.4068L85.6054 42.4125L85.5986 42.3808C87.1012 45.3153 88.4058 48.3411 89.6502 51.389C90.8501 54.4531 92.0147 57.5344 93.0293 60.6645C94.0758 63.7847 94.9713 66.9521 95.7891 70.1364C96.6341 73.3143 97.335 76.5273 97.9876 79.7464L97.9926 79.771C98.0117 79.8656 97.9935 79.9638 97.9415 80.0457C97.7815 80.2934 97.6066 80.5315 97.4177 80.7588C97.2357 80.9812 97.0455 81.1941 96.8505 81.4006C96.4602 81.8118 96.0454 82.2 95.6083 82.5632L95.722 82.3134L95.7218 82.3191L95.7212 82.34C95.7198 82.3834 95.7092 82.4262 95.6899 82.4654C95.6707 82.5046 95.6433 82.5395 95.6095 82.5677C94.7066 83.3277 93.7293 83.9984 92.6917 84.5698C91.658 85.1345 90.5758 85.6096 89.4576 85.9894C88.3433 86.3682 87.2024 86.6668 86.0438 86.8828C84.8834 87.0839 83.7132 87.2261 82.5379 87.309C82.4832 87.3129 82.4289 87.297 82.3855 87.2641C82.3421 87.2312 82.3126 87.1838 82.3026 87.1309L82.3001 87.1171L82.0923 85.9813L82.0899 85.959L82.0894 85.9427L82.0697 85.3149L82.453 85.5739C81.3068 85.9188 80.1229 86.1289 78.9261 86.1998C77.7496 86.2977 76.5719 86.3378 75.3964 86.3292C73.0506 86.2908 70.7091 86.1178 68.3839 85.8111L68.9534 85.2993L69.0022 87.0658C69.0049 87.168 68.975 87.2684 68.9168 87.3531C68.8586 87.4378 68.7749 87.5027 68.6773 87.5386L68.0051 87.7845C67.748 87.8708 67.4826 87.9309 67.2131 87.9639C66.6943 88.0231 66.1696 88.0095 65.6548 87.9234C65.1579 87.843 64.6698 87.7167 64.1972 87.5461C63.7246 87.3792 63.2663 87.1759 62.8264 86.9382C62.749 86.8966 62.6888 86.83 62.656 86.7497C62.6231 86.6693 62.6198 86.5803 62.6466 86.4979L62.6502 86.4869C62.7242 86.2764 62.7794 86.0599 62.8154 85.84C62.851 85.6131 62.8689 85.3838 62.8689 85.1542C62.8589 84.6777 62.8017 84.2033 62.6979 83.7377L62.6933 83.7172C62.6898 83.7008 62.6882 83.6839 62.6887 83.6671L62.6888 83.6624C62.6903 83.7042 62.7004 83.7453 62.7184 83.7831C62.7282 83.8015 62.7345 83.8107 62.7226 83.7909C62.6928 83.7373 62.6812 83.6759 62.6893 83.6154C62.7266 83.4678 62.761 83.4765 62.7718 83.4536L62.7002 83.7263L62.6103 83.3685L62.5989 83.2929C62.5993 83.3194 62.6056 83.3455 62.6173 83.3694C62.6087 83.3438 62.6017 83.3177 62.5965 83.2913L62.5891 83.2524C62.5899 83.2715 62.5927 83.2905 62.5976 83.3091C62.6012 83.3218 62.6061 83.334 62.6123 83.3457L62.598 83.3117C62.5829 83.2726 62.575 83.2313 62.5745 83.1896L62.585 83.2614C62.5297 83.0738 62.483 82.8862 62.4183 82.6962L62.3231 82.4132C62.2931 82.3202 62.2533 82.213 62.2419 82.1653L62.2258 82.1327C62.0937 81.7672 61.9444 81.3992 61.779 81.0411L61.7724 81.027C61.7644 81.0094 61.7606 80.9902 61.7614 80.971L61.7617 80.9653L61.7779 81.0328C61.6043 80.6747 61.4434 80.3093 61.2605 79.9543L61.2643 79.9603L61.2063 79.8441L61.1974 79.8077C61.2053 79.8484 61.2007 79.8242 61.2112 79.8411L61.2109 79.8425L61.2094 79.8422L61.2037 79.8325L61.1607 79.7606L61.1549 79.7518L61.0089 79.4878L61.0071 79.4845C61 79.4716 60.9981 79.4566 61.002 79.4424C61.0058 79.4282 61.015 79.416 61.0278 79.4082C61.0405 79.4005 61.0557 79.3978 61.0704 79.4007C61.0851 79.4036 61.0981 79.4119 61.1067 79.4239L61.1068 79.4239Z" fill="#020202"/>
<path d="M53.108 13.0936C52.309 14.1571 51.7504 15.3634 51.4665 16.6379C51.3222 17.2624 51.2314 17.8968 51.1949 18.535C51.1713 19.1732 51.194 19.8122 51.2628 20.4476L51.3202 20.9254C51.3457 21.1173 51.355 21.3107 51.3479 21.504C51.3293 21.8775 51.2619 22.2473 51.1472 22.6053C50.9198 23.3299 50.4681 23.9743 49.8496 24.4564C49.2594 24.806 48.692 25.1887 48.1505 25.6022C47.9216 25.8067 47.7378 26.0515 47.6095 26.3227C47.4819 26.5791 47.4409 26.8661 47.4921 27.1451L47.4778 27.1146C47.5672 27.2464 47.6865 27.3581 47.827 27.4417C47.9817 27.5351 48.1527 27.602 48.3322 27.6392C48.7089 27.7175 49.0985 27.7228 49.4775 27.6547C49.5006 27.6507 49.5243 27.651 49.5473 27.6556C49.5703 27.6602 49.5921 27.669 49.6114 27.6816C49.6308 27.6941 49.6474 27.7101 49.6602 27.7286C49.673 27.7472 49.6817 27.7679 49.686 27.7896L49.6885 27.8076L49.6894 27.8199C49.7307 28.3438 49.767 28.8679 49.8217 29.3903C49.9543 30.9413 50.3151 32.4674 50.8938 33.9252C51.0374 34.3376 51.3016 34.7036 51.6561 34.9815C51.6906 34.9938 51.7162 35.0187 51.7524 35.0282L51.9282 35.0818C52.0514 35.1164 52.1779 35.1488 52.3066 35.1781C52.5626 35.2402 52.8246 35.2939 53.0889 35.3398C54.1593 35.5134 55.2447 35.5932 56.3308 35.5782C56.8768 35.5653 57.4228 35.5548 57.9693 35.5234L58.8029 35.4671C59.1408 35.4435 59.4806 35.4651 59.8121 35.5315C60.4918 35.6751 61.1052 36.0184 61.5637 36.5115C61.9765 36.968 62.289 37.4968 62.483 38.0675C62.8406 39.1225 63.0148 40.2247 62.999 41.3318C63.007 42.4074 62.9107 43.4814 62.7113 44.5405L62.7125 44.5157L62.6573 45.2297L62.622 45.5847C62.6053 45.7108 62.6057 45.8038 62.575 45.9572C62.5725 45.9696 62.5653 45.9808 62.5547 45.9887C62.5441 45.9965 62.5309 46.0005 62.5174 45.9999C62.5039 45.9993 62.4911 45.9942 62.4814 45.9854C62.4716 45.9767 62.4656 45.9649 62.4643 45.9523L62.4613 45.9215L62.3238 44.524L62.325 44.499C62.3445 43.4571 62.2929 42.4151 62.1706 41.3795C62.0665 40.3738 61.8208 39.3856 61.4399 38.4408C61.3088 38.0243 61.0673 37.646 60.7383 37.3412C60.4092 37.0363 60.0033 36.815 59.5585 36.6979C59.3382 36.6654 59.1147 36.6561 58.8922 36.67L58.0456 36.7231C57.471 36.7534 56.8942 36.7681 56.317 36.7513C55.1558 36.7228 54 36.5926 52.8645 36.3625C52.579 36.301 52.2942 36.2332 52.0105 36.1498C51.8691 36.1072 51.7276 36.0608 51.5851 36.0099L51.3662 35.926C51.2722 35.8836 51.1821 35.8341 51.0967 35.7779C50.8113 35.5766 50.5787 35.3166 50.4167 35.0177C50.2704 34.7621 50.1492 34.4944 50.0546 34.218C49.3878 32.0725 49.4675 29.9482 49.3255 27.8273L49.5373 27.9924C49.1107 28.0659 48.6734 28.0651 48.2471 27.9902C48.0266 27.9459 47.8141 27.8718 47.6162 27.7702C47.401 27.662 47.2171 27.5061 47.0805 27.3159C47.0746 27.3076 47.0702 27.2986 47.0672 27.2891L47.066 27.2852C46.9741 26.9167 46.9782 26.5327 47.078 26.166C47.1779 25.7993 47.3704 25.4607 47.6393 25.179C48.1328 24.6916 48.6623 24.2375 49.2237 23.8202C49.6525 23.3997 49.9624 22.8849 50.1252 22.3227C50.2102 22.0426 50.2593 21.754 50.2716 21.4629C50.2814 21.3242 50.2796 21.1849 50.2661 21.0464L50.22 20.5322C50.0888 19.1511 50.2567 17.7593 50.7138 16.4409C51.1494 15.1274 51.9461 13.9452 53.0232 13.014C53.0343 13.0048 53.0486 12.9999 53.0634 13C53.0781 13.0001 53.0923 13.0054 53.1032 13.0148C53.1141 13.0241 53.1209 13.037 53.1224 13.0508C53.1239 13.0646 53.1198 13.0784 53.1111 13.0896L53.108 13.0936Z" fill="#020202"/>
<path d="M98.2829 84C91.5148 89.2599 83.0347 89.8017 83.0347 89.8017C83.0347 89.8017 84.7128 100.633 82.485 119.158C82.3128 120.111 82.2334 121.079 82.2481 122.048C84.1116 121.906 85.9809 121.861 87.8487 121.915C89.7971 121.945 91.7423 122.088 93.675 122.342C96.5904 121.257 99.197 119.45 101.261 117.082C108.841 106.424 98.2829 84 98.2829 84ZM87.8318 122.492C85.9707 122.434 84.1093 122.342 82.2481 122.1C82.2933 122.67 82.4343 123.115 82.7387 123.172L82 132.314L92.327 133C92.327 133 90.618 126.39 93.3704 122.567L93.675 122.342C91.7316 122.504 89.7807 122.554 87.8318 122.492ZM89.992 131.95C89.7728 131.942 89.5652 131.848 89.4129 131.686C89.2606 131.525 89.1755 131.309 89.1755 131.085C89.1755 130.861 89.2606 130.645 89.4129 130.484C89.5652 130.323 89.7728 130.228 89.992 130.22C90.2112 130.228 90.4188 130.323 90.5711 130.484C90.7234 130.645 90.8085 130.861 90.8085 131.085C90.8085 131.309 90.7234 131.525 90.5711 131.686C90.4188 131.848 90.2112 131.942 89.992 131.95ZM90.6012 123.68C90.8203 123.688 91.0279 123.782 91.1802 123.944C91.3325 124.105 91.4176 124.321 91.4176 124.545C91.4176 124.769 91.3325 124.985 91.1802 125.146C91.0279 125.307 90.8203 125.402 90.6012 125.41C90.382 125.402 90.1744 125.307 90.0221 125.146C89.8698 124.985 89.7847 124.769 89.7847 124.545C89.7847 124.321 89.8698 124.105 90.0221 123.944C90.1744 123.782 90.382 123.688 90.6012 123.68H90.6012ZM89.992 127.106C90.2112 127.114 90.4187 127.208 90.571 127.37C90.7233 127.531 90.8084 127.747 90.8084 127.971C90.8084 128.195 90.7233 128.411 90.571 128.572C90.4187 128.733 90.2112 128.828 89.992 128.836C89.7729 128.828 89.5653 128.733 89.413 128.572C89.2607 128.411 89.1756 128.195 89.1756 127.971C89.1756 127.747 89.2607 127.531 89.413 127.37C89.5653 127.208 89.7729 127.114 89.992 127.106Z" fill="#020202"/>
<path d="M100.041 116.617C101.506 116.166 103.031 115.96 104.559 116.006C105.338 116.023 106.112 116.126 106.869 116.314C107.655 116.494 108.401 116.83 109.064 117.302C109.736 117.798 110.265 118.475 110.594 119.258C110.749 119.671 110.825 120.017 110.977 120.345C111.132 120.68 111.329 120.992 111.562 121.273C112.594 122.362 113.902 123.128 115.335 123.483C116.756 123.871 118.201 124.162 119.66 124.353C120.405 124.452 121.083 124.516 121.884 124.56C122.657 124.657 123.421 124.819 124.168 125.044C124.934 125.273 125.669 125.599 126.357 126.015C126.719 126.244 127.051 126.522 127.342 126.842C127.664 127.191 127.883 127.629 127.972 128.103C128.044 128.573 127.977 129.054 127.779 129.484C127.602 129.867 127.368 130.219 127.086 130.527C126.551 131.101 125.941 131.593 125.274 131.991C125.267 131.995 125.26 131.998 125.252 131.999C125.245 132 125.237 132 125.23 131.998C125.222 131.996 125.215 131.993 125.209 131.988C125.203 131.984 125.198 131.978 125.194 131.971C125.187 131.959 125.185 131.946 125.186 131.932C125.188 131.919 125.194 131.906 125.203 131.896C125.727 131.362 126.203 130.779 126.623 130.154C126.818 129.864 126.969 129.545 127.069 129.207C127.151 128.915 127.156 128.606 127.081 128.311C126.827 127.73 126.368 127.27 125.799 127.025C125.169 126.704 124.509 126.453 123.829 126.275C123.136 126.079 122.433 125.92 121.724 125.8C121.033 125.728 120.224 125.609 119.491 125.468C117.984 125.201 116.515 124.741 115.117 124.101C113.698 123.497 112.399 122.628 111.285 121.536C111.012 121.246 110.769 120.927 110.56 120.585C110.449 120.414 110.351 120.234 110.266 120.047L110.017 119.558C109.653 118.96 109.143 118.472 108.54 118.141C107.28 117.469 105.906 117.059 104.494 116.934C103.022 116.775 101.541 116.709 100.061 116.736C100.046 116.736 100.031 116.731 100.019 116.72C100.008 116.709 100.001 116.694 100 116.678C99.9999 116.665 100.004 116.652 100.011 116.641C100.019 116.63 100.029 116.622 100.041 116.617Z" fill="#020202"/>
<path d="M93.9373 121.889C94.7036 121.802 95.4646 121.674 96.2168 121.504C96.5836 121.421 96.9435 121.31 97.2934 121.172C97.6596 121.018 98.0321 120.893 98.4071 120.77C99.9202 120.25 101.511 119.99 103.111 120C103.952 120.012 104.782 120.189 105.554 120.522C105.953 120.711 106.321 120.957 106.647 121.252C106.969 121.56 107.238 121.918 107.443 122.312C107.64 122.696 107.787 123.104 107.88 123.525L108.028 123.999C108.094 124.152 108.169 124.301 108.253 124.445C108.628 125.037 109.12 125.547 109.699 125.943C110.961 126.764 112.351 127.37 113.813 127.736C114.551 127.938 115.301 128.112 116.059 128.248C116.814 128.385 117.586 128.456 118.363 128.587C119.913 128.835 121.428 129.263 122.878 129.86C123.629 130.14 124.336 130.526 124.976 131.008C125.309 131.276 125.579 131.613 125.768 131.997C125.864 132.195 125.933 132.406 125.972 132.623C125.999 132.84 126.006 133.059 125.995 133.277C125.881 134.105 125.562 134.892 125.069 135.567C124.849 135.904 124.611 136.228 124.356 136.538L124.262 136.656L124.123 136.79C124.036 136.877 123.937 136.952 123.83 137.014C123.641 137.134 123.44 137.235 123.23 137.316C121.689 137.789 120.083 138.018 118.471 137.994C115.329 138.043 112.189 137.801 109.092 137.269C107.526 137.013 105.985 136.622 104.486 136.102C103.692 135.793 103.075 135.486 102.337 135.245C101.621 134.994 100.885 134.783 100.144 134.584C97.1731 133.797 94.1143 133.251 91.0502 132.755C91.0349 132.753 91.0211 132.745 91.0118 132.733C91.0025 132.721 90.9984 132.705 91.0005 132.69C91.0028 132.676 91.0101 132.663 91.0211 132.654C91.032 132.645 91.046 132.64 91.0603 132.64C94.1822 132.743 97.2906 133.099 100.355 133.705C101.122 133.874 101.888 134.056 102.649 134.284C103.399 134.49 104.196 134.831 104.861 135.052C106.314 135.495 107.798 135.83 109.3 136.054C112.328 136.566 115.39 136.851 118.461 136.906C119.225 136.91 119.987 136.884 120.74 136.829C121.475 136.788 122.203 136.663 122.909 136.456C123.064 136.405 123.214 136.338 123.356 136.257C123.42 136.228 123.479 136.188 123.53 136.139L123.607 136.078L123.699 135.972C123.954 135.699 124.194 135.413 124.419 135.116C124.886 134.566 125.21 133.911 125.364 133.207C125.408 132.868 125.365 132.522 125.24 132.203C125.115 131.883 124.91 131.601 124.646 131.381C124.074 130.893 123.425 130.501 122.725 130.222C121.32 129.592 119.832 129.166 118.307 128.958C115.254 128.646 112.019 128.425 109.163 126.743C108.437 126.294 107.822 125.688 107.364 124.969C107.251 124.781 107.151 124.584 107.065 124.382L106.862 123.749C106.788 123.414 106.677 123.089 106.529 122.779C105.96 121.542 104.518 120.991 103.062 120.895C101.551 120.829 100.039 120.986 98.5745 121.362C98.2026 121.45 97.8329 121.552 97.4676 121.657C97.081 121.765 96.6868 121.843 96.2883 121.89C95.5102 121.991 94.7252 122.029 93.941 122.005C93.9256 122.004 93.911 121.998 93.9005 121.986C93.8899 121.975 93.8843 121.96 93.8847 121.945C93.8855 121.931 93.8912 121.918 93.9008 121.908C93.9104 121.897 93.9233 121.891 93.9373 121.889Z" fill="#020202"/>
<path d="M59 89C58.5059 89.9366 57.9144 90.8269 57.2338 91.6585C56.574 92.5043 55.8259 93.2885 55 94C55.493 93.0629 56.0846 92.1724 56.7662 91.3415C57.427 90.4964 58.175 89.7123 59 89Z" fill="#020202"/>
<path d="M97 81L98 84" stroke="#020202" stroke-width="0.90553" stroke-linecap="round" stroke-linejoin="round"/>
<path d="M49.984 79.0975C48.4857 80.66 46.9487 82.1818 45.419 83.7134L43.0805 85.9695L42.4822 86.5273C42.3823 86.6194 42.2616 86.7161 42.1732 86.8047L41.9435 87.0602C41.6152 87.4679 41.2975 87.8999 40.9801 88.3325C38.4492 91.8179 36.0008 95.386 33.4764 98.8972C32.2054 100.649 30.9269 102.392 29.5432 104.08C28.1547 105.745 26.7346 107.393 25.2042 108.941C22.1216 112.004 18.7406 114.752 15.1113 117.146C15.0985 117.154 15.085 117.161 15.0708 117.166C12.1887 118.215 9.32581 119.314 6.48199 120.464L4.36185 121.342C3.66853 121.615 2.99865 121.943 2.35884 122.324C2.07358 122.502 1.81893 122.725 1.60465 122.983C1.52629 123.074 1.47304 123.184 1.45016 123.302C1.44257 123.337 1.44467 123.373 1.45625 123.407C1.46784 123.441 1.48847 123.471 1.51589 123.494C1.73763 123.685 2.00418 123.818 2.29094 123.88C2.63807 123.968 2.99107 124.032 3.34728 124.071C3.44486 124.083 3.53619 124.125 3.60841 124.192C3.68063 124.258 3.73012 124.345 3.74993 124.442C3.76974 124.538 3.75886 124.637 3.71883 124.727C3.6788 124.816 3.61164 124.891 3.52678 124.941L3.51482 124.948C3.01695 125.233 2.5377 125.55 2.07996 125.896C1.85902 126.062 1.64936 126.242 1.45237 126.436C1.28579 126.586 1.15091 126.768 1.05561 126.97C1.02435 127.047 1.04607 127.041 1.04008 127.026C1.06608 127.048 1.09426 127.068 1.12421 127.085C1.33673 127.185 1.56427 127.249 1.79765 127.275C2.35835 127.345 2.92382 127.371 3.48865 127.352C3.60343 127.35 3.71587 127.384 3.80991 127.45C3.90396 127.516 3.97483 127.609 4.01241 127.717C4.05 127.826 4.05238 127.943 4.01923 128.052C3.98607 128.162 3.91906 128.258 3.82776 128.328L3.81475 128.337C3.50766 128.568 3.2197 128.823 2.95366 129.099C2.71139 129.332 2.51815 129.611 2.38525 129.919C2.34626 130.041 2.36222 130.094 2.37465 130.117C2.42267 130.187 2.49002 130.241 2.56843 130.273C2.88481 130.412 3.22274 130.497 3.56766 130.523C3.65674 130.533 3.74221 130.564 3.81739 130.613C3.89257 130.661 3.95542 130.727 4.001 130.804C4.04658 130.881 4.07366 130.967 4.08013 131.056C4.08659 131.146 4.07227 131.235 4.03827 131.318L4.03342 131.329C3.97591 131.464 3.95561 131.613 3.9746 131.758C3.97673 131.786 3.97304 131.733 3.95883 131.746C3.97774 131.742 3.97844 131.75 4.00069 131.757C4.03493 131.758 4.06905 131.762 4.10253 131.769C4.58014 131.73 5.04727 131.609 5.48253 131.409C6.46305 130.976 7.49531 130.454 8.47195 129.929C9.45719 129.399 10.4195 128.83 11.3431 128.223C12.2554 127.652 13.0889 126.965 13.8223 126.179L13.8438 126.154C13.875 126.118 13.9111 126.087 13.951 126.062C14.3352 125.817 14.7382 125.602 15.1563 125.42C15.5922 125.224 16.0533 125.089 16.5264 125.018C16.6584 125.01 16.7865 124.996 16.9218 124.997C17.0644 125.01 17.2063 125.024 17.3482 125.047C17.498 125.093 17.6451 125.148 17.7886 125.211C17.9255 125.301 18.0558 125.401 18.1788 125.509C18.5301 125.946 18.7179 126.49 18.71 127.05C18.7174 127.119 18.7066 127.189 18.6789 127.253L18.663 127.289C17.8878 128.895 17.3583 130.608 17.0922 132.37C17.0439 132.752 17.0829 133.14 17.2063 133.505C17.2625 133.64 17.3621 133.752 17.4893 133.823C17.6537 133.935 17.8285 134.03 18.0112 134.109C18.4544 134.423 19.0759 133.454 19.5529 132.749C20.5319 131.225 21.5077 129.614 22.4533 128.087C23.227 126.437 23.6714 124.653 23.7617 122.833C23.7626 122.818 23.7696 122.804 23.7811 122.794C23.7925 122.784 23.8076 122.779 23.8228 122.78C23.8373 122.781 23.8509 122.787 23.8609 122.798C23.8708 122.808 23.8765 122.822 23.8768 122.837C23.9207 124.704 23.5813 126.561 22.8794 128.293C22.4468 129.152 21.982 129.91 21.5386 130.726C21.0892 131.529 20.648 132.335 20.1724 133.136C19.9338 133.554 19.6645 133.953 19.3668 134.33C19.1899 134.558 18.9654 134.745 18.7089 134.877C18.5511 134.954 18.3784 134.996 18.2028 135C18.0419 134.995 17.8828 134.966 17.731 134.913C17.4843 134.824 17.2484 134.708 17.0279 134.566C16.8918 134.489 16.7685 134.392 16.6622 134.277C16.5542 134.16 16.4644 134.027 16.3957 133.884C16.1926 133.386 16.1123 132.846 16.1614 132.311C16.2404 131.356 16.4274 130.413 16.7189 129.5C16.9903 128.599 17.3094 127.714 17.6748 126.848L17.6278 127.087C17.6264 126.799 17.5383 126.519 17.375 126.283C17.2752 126.209 17.1596 126.159 17.0372 126.137C16.9148 126.115 16.789 126.122 16.6698 126.157C16.3095 126.22 15.9592 126.33 15.6281 126.485C15.2751 126.644 14.9349 126.83 14.6104 127.041L14.7389 126.925C13.9426 127.813 13.0306 128.59 12.0271 129.237C11.0675 129.877 10.0758 130.468 9.05591 131.008C8.03284 131.55 7.04312 132.061 5.94477 132.533C5.34313 132.798 4.69473 132.942 4.03703 132.956C3.93022 132.943 3.82305 132.928 3.71745 132.909C3.59529 132.873 3.47658 132.826 3.36275 132.769C3.11233 132.618 2.9278 132.379 2.84559 132.099C2.78286 131.881 2.76987 131.652 2.80758 131.429C2.83459 131.237 2.88617 131.05 2.96106 130.871L3.42678 131.677C2.93755 131.63 2.46097 131.495 2.02022 131.278C1.72031 131.127 1.47924 130.881 1.33502 130.579C1.19926 130.253 1.19247 129.889 1.31603 129.559C1.50457 129.095 1.79029 128.677 2.15406 128.332C2.471 128.012 2.81405 127.718 3.17969 127.454L3.50579 128.439C2.87639 128.451 2.24709 128.411 1.62416 128.32C1.26378 128.272 0.915011 128.16 0.594371 127.989C0.493725 127.927 0.399312 127.856 0.312454 127.776C0.209508 127.674 0.128268 127.551 0.0735175 127.416C-0.0289114 127.155 -0.024145 126.864 0.0867961 126.605C0.239433 126.264 0.464148 125.96 0.74556 125.714C0.979453 125.495 1.22766 125.292 1.48856 125.107C1.9924 124.746 2.51892 124.418 3.06488 124.124L3.23238 125.001C2.82681 124.946 2.42578 124.862 2.03249 124.749C1.57003 124.633 1.15116 124.386 0.826396 124.038C0.729538 123.918 0.65694 123.781 0.612658 123.634C0.574492 123.481 0.569108 123.322 0.596855 123.166L0.648727 122.951L0.735504 122.773C0.791621 122.663 0.860377 122.56 0.940389 122.467C1.22431 122.142 1.56022 121.867 1.93446 121.652C2.62747 121.273 3.35087 120.952 4.09719 120.693L6.26214 119.893L14.942 116.81L14.9018 116.831C18.5441 114.512 21.8569 111.715 24.7507 108.516C26.1924 106.922 27.5307 105.235 28.8393 103.523C30.1265 101.811 31.3752 100.045 32.6399 98.297L36.4509 93.0533C37.7317 91.3108 38.9886 89.5521 40.3267 87.8413C40.6664 87.4158 41.0062 86.9901 41.3737 86.5702C41.4726 86.4617 41.5934 86.3477 41.7037 86.2396C41.8112 86.1423 41.9059 86.0741 42.0085 85.9873L42.6185 85.4631L45.039 83.3102L49.9044 79.0144C49.91 79.0094 49.9166 79.0056 49.9238 79.0031C49.9309 79.0007 49.9385 78.9996 49.9461 79.0001C49.9536 79.0006 49.961 79.0025 49.9678 79.0058C49.9746 79.0091 49.9807 79.0137 49.9858 79.0194C49.9953 79.0303 50.0003 79.0443 50 79.0588C49.9997 79.0732 49.9939 79.087 49.984 79.0975Z" fill="#020202"/>
<path d="M49.9818 79.0949C48.4841 80.6569 46.9461 82.1787 45.4195 83.7121L43.0809 85.9689L42.4818 86.526C42.3838 86.6179 42.2628 86.7155 42.1707 86.8016L41.9402 87.06C41.612 87.4678 41.2951 87.8985 40.9783 88.3292L33.4783 98.8957C32.2052 100.647 30.9265 102.393 29.544 104.081C28.1557 105.747 26.7329 107.389 25.2064 108.94C22.121 112.001 18.7384 114.75 15.1085 117.146C15.0955 117.153 15.082 117.159 15.0681 117.163C12.1879 118.214 9.32504 119.313 6.47945 120.46C5.77093 120.747 5.06243 121.04 4.35969 121.338C3.66883 121.613 3.00047 121.942 2.3607 122.32C2.07436 122.497 1.81942 122.72 1.60621 122.981C1.56412 123.034 1.52742 123.092 1.49666 123.153L1.45643 123.233C1.45738 123.256 1.45545 123.28 1.45067 123.302C1.44183 123.336 1.44309 123.373 1.45432 123.406C1.46554 123.44 1.48625 123.469 1.51395 123.492C1.73658 123.683 2.00406 123.815 2.29164 123.876C2.45872 123.922 2.63157 123.957 2.80427 123.991L3.06922 124.026L3.3457 124.066C3.46981 124.084 3.5817 124.151 3.65716 124.251C3.73263 124.35 3.76564 124.476 3.74905 124.6C3.73827 124.671 3.71205 124.738 3.67225 124.798C3.63245 124.857 3.58003 124.907 3.51869 124.945H3.51279C3.24783 125.1 2.97711 125.266 2.71792 125.444C2.49909 125.588 2.28598 125.737 2.0786 125.892C1.85922 126.06 1.64957 126.24 1.45067 126.432C1.28645 126.584 1.15169 126.765 1.05309 126.966C1.04558 126.984 1.04167 127.004 1.04156 127.023L1.04746 127.029C1.07044 127.049 1.09553 127.066 1.12227 127.081C1.33434 127.182 1.5623 127.246 1.79618 127.27C2.22556 127.33 2.65884 127.357 3.09228 127.351H3.48971C3.63398 127.349 3.77316 127.404 3.87681 127.504C3.98045 127.604 4.04014 127.741 4.04283 127.885C4.04346 127.963 4.02568 128.039 3.99093 128.109C3.96019 128.196 3.90402 128.272 3.82963 128.327L3.81231 128.333C3.50754 128.566 3.22064 128.821 2.95402 129.097C2.71173 129.33 2.51796 129.609 2.38376 129.918C2.34354 130.038 2.3607 130.09 2.37223 130.113C2.42044 130.183 2.48872 130.237 2.56817 130.268C2.81684 130.386 3.08354 130.462 3.35725 130.492C3.42644 130.503 3.49564 130.515 3.56468 130.521C3.64088 130.529 3.71468 130.552 3.7818 130.589C3.84892 130.626 3.90804 130.676 3.95572 130.736C4.0034 130.795 4.03869 130.864 4.05956 130.938C4.08043 131.011 4.08647 131.088 4.0773 131.164C4.07286 131.216 4.05924 131.266 4.03708 131.313L4.03131 131.325C4.01805 131.359 4.0065 131.393 3.99672 131.428V131.434C3.96261 131.535 3.95468 131.644 3.97366 131.75C3.98355 131.75 3.99333 131.752 4.00249 131.755C4.03539 131.756 4.06814 131.76 4.10037 131.767C4.57912 131.729 5.04729 131.607 5.48295 131.405C6.46218 130.974 7.4933 130.452 8.47254 129.929C9.45754 129.395 10.4196 128.827 11.3412 128.218C12.2536 127.648 13.0881 126.963 13.824 126.179L13.8413 126.15C13.8735 126.115 13.9103 126.084 13.9507 126.059C14.3363 125.816 14.7386 125.601 15.1545 125.415C15.5911 125.22 16.0524 125.085 16.5255 125.013C16.658 125.008 16.7847 124.996 16.923 124.996C17.0659 125.005 17.2083 125.023 17.3492 125.048C17.4985 125.092 17.6447 125.146 17.787 125.209C17.9248 125.299 18.0557 125.398 18.1787 125.507C18.5278 125.944 18.715 126.488 18.7087 127.046C18.7152 127.119 18.7033 127.192 18.6741 127.259L18.6626 127.288C18.2902 128.106 17.9614 128.944 17.6776 129.797C17.3893 130.631 17.1923 131.494 17.09 132.37C17.0445 132.751 17.0839 133.137 17.2052 133.501C17.2327 133.567 17.2717 133.627 17.3205 133.679C17.3369 133.706 17.3584 133.729 17.3838 133.748L17.4184 133.777L17.4876 133.823C17.6518 133.935 17.8275 134.029 18.0118 134.104C18.4553 134.42 19.0774 133.449 19.5498 132.749C20.529 131.221 21.5084 129.613 22.453 128.086C23.2251 126.435 23.6692 124.651 23.7606 122.831C23.761 122.824 23.763 122.816 23.7664 122.809C23.7699 122.802 23.7748 122.796 23.7808 122.791C23.7867 122.786 23.7937 122.783 23.8011 122.781C23.8086 122.779 23.8164 122.778 23.8241 122.78C23.8313 122.78 23.8385 122.781 23.845 122.784C23.8516 122.787 23.8575 122.792 23.8624 122.797C23.8672 122.803 23.8709 122.809 23.8732 122.816C23.8755 122.823 23.8764 122.83 23.8758 122.837C23.921 124.704 23.5818 126.561 22.8793 128.293C22.4473 129.148 21.9806 129.906 21.537 130.722C21.0878 131.526 20.6499 132.335 20.1719 133.134C19.9325 133.551 19.663 133.95 19.3654 134.328C19.189 134.555 18.9649 134.742 18.7088 134.874C18.5509 134.952 18.3779 134.995 18.2018 135C18.0404 134.995 17.8809 134.964 17.7295 134.908C17.4834 134.819 17.2478 134.703 17.0266 134.564C16.8907 134.488 16.7681 134.391 16.6638 134.276C16.5524 134.16 16.4609 134.026 16.3931 133.88C16.1912 133.382 16.1121 132.842 16.1626 132.307C16.2411 131.353 16.4267 130.411 16.7157 129.498C16.9749 128.649 17.2744 127.822 17.6142 127C17.6119 126.742 17.5272 126.49 17.3723 126.283C17.2736 126.207 17.1584 126.157 17.0362 126.135C16.914 126.113 16.7883 126.12 16.6695 126.156C16.3089 126.218 15.9582 126.329 15.6269 126.484C15.2904 126.637 14.9651 126.813 14.6534 127.012C13.8746 127.859 12.9921 128.606 12.0267 129.234C11.0667 129.874 10.0746 130.464 9.05435 131.003C8.03475 131.549 7.04398 132.06 5.9438 132.531C5.34246 132.796 4.69451 132.94 4.03708 132.956C3.92767 132.938 3.82389 132.927 3.71447 132.904C3.594 132.867 3.47656 132.821 3.36317 132.766C3.14798 132.632 2.97909 132.436 2.87924 132.203C2.86253 132.169 2.85088 132.132 2.84465 132.094C2.79484 131.921 2.77726 131.74 2.79276 131.56C2.60534 131.517 2.42218 131.458 2.24554 131.382C2.16848 131.35 2.09348 131.314 2.02095 131.273C1.72162 131.123 1.48055 130.879 1.33551 130.578C1.23193 130.34 1.2018 130.076 1.24898 129.82C1.26449 129.73 1.28763 129.642 1.31817 129.556C1.49346 129.112 1.76259 128.71 2.10728 128.379C1.99786 128.373 1.88844 128.356 1.77902 128.344C1.72713 128.338 1.67523 128.327 1.62348 128.321C1.26265 128.272 0.913484 128.159 0.592355 127.988C0.492841 127.925 0.398471 127.854 0.310107 127.776C0.207444 127.672 0.127031 127.549 0.0738297 127.414C-0.0246099 127.161 -0.0246099 126.88 0.0738297 126.627C0.079593 126.616 0.0796108 126.61 0.0853805 126.604C0.239149 126.263 0.465158 125.96 0.747893 125.714C0.914966 125.553 1.08768 125.41 1.26628 125.266C1.42182 125.157 1.57734 125.042 1.7329 124.933C1.73925 124.927 1.74729 124.923 1.75596 124.922C1.84808 124.864 1.93458 124.801 2.02669 124.744C2.02092 124.744 2.02093 124.744 2.01516 124.738C1.55865 124.627 1.14556 124.383 0.828477 124.037C0.730905 123.918 0.656634 123.782 0.609516 123.635C0.574309 123.481 0.570433 123.321 0.59812 123.164C0.609887 123.09 0.627187 123.018 0.649876 122.946L0.7364 122.774C0.792752 122.664 0.860284 122.56 0.937928 122.464C1.22358 122.14 1.5602 121.864 1.9346 121.648C2.62777 121.272 3.35013 120.951 4.09474 120.689L6.26051 119.891L14.9184 116.819C18.5545 114.503 21.8618 111.71 24.7514 108.515C26.1915 106.918 27.5279 105.236 28.8413 103.524C30.1258 101.813 31.3758 100.044 32.6373 98.2985C35.1718 94.7955 37.6718 91.2752 40.3275 87.8411C40.6672 87.4161 41.0071 86.9912 41.3757 86.572C41.4738 86.4628 41.5947 86.348 41.7041 86.2389C41.8137 86.1413 41.9058 86.0724 42.0095 85.9862L42.6201 85.4636L45.0394 83.3101L49.9012 79.0146C49.9135 79.0042 49.9294 78.9991 49.9456 79.0001C49.9617 79.0012 49.9768 79.0084 49.9877 79.0203C49.9966 79.0311 50.0009 79.0449 49.9998 79.0588C49.9987 79.0727 49.9923 79.0856 49.9818 79.0949Z" fill="#020202"/>
<path d="M10 120C9.34922 120.645 4.89534 123.431 4.14117 123.893C3.52494 124.269 2.89884 124.624 2.26287 124.954C2.11495 125.03 1.96703 125.106 1.81417 125.183C1.2239 125.488 0.618327 125.761 0 126C0.00493552 125.99 0.00493673 125.985 0.00987225 125.98C0.141471 125.678 0.334911 125.41 0.576883 125.193C0.719872 125.05 0.867668 124.924 1.02053 124.797C1.15365 124.7 1.28677 124.599 1.41989 124.502C1.42533 124.497 1.43219 124.493 1.43961 124.492C1.51351 124.436 1.58742 124.38 1.66146 124.329C1.95719 124.116 2.25795 123.908 2.56355 123.7C2.9186 123.466 3.27352 123.238 3.63833 123.019C4.3926 122.552 9.13727 120.284 10 120Z" fill="#020202"/>
<path d="M10 123C9.29106 123.72 4.79124 126.682 3.95641 127.234L3.49952 127.53C2.80647 127.974 2.10278 128.393 1.37808 128.798C1.25206 128.867 1.12602 128.936 1 129C1.01414 128.923 1.03525 128.847 1.06309 128.773C1.22288 128.392 1.4682 128.047 1.78241 127.762C1.68267 127.757 1.58293 127.742 1.48319 127.732C1.87702 127.441 2.27599 127.155 2.68033 126.879C2.90096 126.721 3.1267 126.573 3.35246 126.425C4.18742 125.873 9.03902 123.385 10 123Z" fill="#020202"/>
<path d="M10 125C9.39 125.723 4.81629 129.423 4.06854 129.968C3.92002 130.078 3.76618 130.188 3.61235 130.293V130.298C3.27297 130.539 2.93346 130.775 2.58347 131C2.56807 130.968 2.55734 130.935 2.55161 130.9C2.50575 130.742 2.48957 130.577 2.50384 130.413C2.33128 130.374 2.16263 130.32 2 130.251C2.3342 129.973 3.29938 129.234 3.43741 129.129C4.17988 128.579 9.12481 125.377 10 125Z" fill="#020202"/>
<path d="M73.0444 46.1718C74.9775 45.6935 77.0175 45.8493 78.8516 46.6152C80.6702 47.4154 82.2771 48.6135 83.549 50.1173C84.8343 51.5864 85.9515 53.189 86.8806 54.8963C87.8234 56.5863 88.6536 58.3343 89.3659 60.1293C90.7705 63.7134 91.9412 67.3812 92.8711 71.1106C93.8443 74.8247 94.5478 78.5959 95.2023 82.3678C95.2067 82.3941 95.209 82.4207 95.2091 82.4473V82.4528L95.2024 82.3739C96.1069 87.8776 96.7324 93.4185 97.2287 98.9629C97.4601 101.737 97.7167 104.508 97.8997 107.285C98.0786 110.063 98.26 112.838 98.3875 115.621L98.092 115.467C99.8773 114.474 101.83 113.804 103.857 113.486C105.888 113.143 107.97 113.205 109.976 113.67C110.985 113.903 111.945 114.277 112.88 114.567C113.827 114.848 114.797 115.047 115.78 115.163C116.747 115.282 117.727 115.268 118.691 115.123C119.162 115.048 119.624 114.928 120.071 114.764C120.492 114.612 120.887 114.398 121.242 114.131L121.254 114.775C120.016 113.518 118.996 112.071 118.236 110.491C117.432 108.979 116.715 107.435 116.031 105.879C114.67 102.765 113.435 99.6095 112.222 96.4494C109.785 90.1329 107.54 83.7576 105.165 77.4332C102.764 71.1214 100.405 64.7896 97.5716 58.6647C96.8654 57.1288 96.1304 55.6283 95.295 54.1693C94.4567 52.714 93.5153 51.3179 92.4778 49.9915C90.4318 47.3004 87.8796 45.0169 84.9585 43.2641L84.9538 43.2614C84.9366 43.2515 84.9224 43.2373 84.9127 43.2203C84.903 43.2032 84.8981 43.184 84.8984 43.1645L84.8986 43.1589L84.9581 43.2581C84.5604 43.0311 84.1541 42.818 83.7385 42.6235C83.5308 42.526 83.3207 42.4336 83.1081 42.3463C82.9048 42.2575 82.6617 42.18 82.4782 42.1152L82.4457 42.1038C82.4325 42.0991 82.4216 42.0896 82.4153 42.0773C82.4091 42.0649 82.4079 42.0507 82.4121 42.0375C82.4163 42.0244 82.4255 42.0133 82.4378 42.0067C82.4502 42 82.4646 41.9983 82.4782 42.0018C82.7097 42.0604 82.9377 42.1314 83.1613 42.2143C83.3796 42.2938 83.5959 42.3785 83.8101 42.4683C84.2386 42.6477 84.6586 42.8463 85.0709 43.0595C85.0885 43.0686 85.1033 43.0822 85.1138 43.0988C85.1243 43.1154 85.13 43.1344 85.1305 43.1539L85.1306 43.1589L85.1307 43.1645L85.0708 43.065C88.1206 44.7118 90.8042 46.9382 92.9641 49.6139C95.1369 52.2727 96.9589 55.1891 98.3871 58.2941C101.33 64.418 103.885 70.7011 106.273 77.0325C108.675 83.3601 110.975 89.719 113.306 96.057C114.484 99.2209 115.683 102.377 117.001 105.476C117.666 107.023 118.338 108.567 119.102 110.057C119.785 111.545 120.707 112.916 121.831 114.12L121.877 114.163C121.915 114.2 121.946 114.243 121.967 114.292C121.988 114.34 121.999 114.392 122 114.444C122.001 114.497 121.991 114.549 121.971 114.597C121.951 114.646 121.922 114.691 121.884 114.728C121.871 114.741 121.858 114.753 121.843 114.764C120.955 115.402 119.91 115.797 118.815 115.91C117.776 116.041 116.724 116.029 115.688 115.876C114.668 115.729 113.662 115.495 112.683 115.178C111.703 114.843 110.787 114.466 109.833 114.223C107.905 113.731 105.896 113.627 103.925 113.916C101.949 114.202 100.042 114.836 98.2969 115.788L98.2892 115.792C98.2671 115.804 98.2428 115.812 98.2177 115.815C98.1925 115.818 98.167 115.816 98.1425 115.809C98.1181 115.803 98.0953 115.791 98.0753 115.776C98.0553 115.761 98.0386 115.742 98.0261 115.72C98.0109 115.694 98.0024 115.664 98.0012 115.633C97.9098 112.859 97.7405 110.082 97.5098 107.313C97.2793 104.544 97.043 101.774 96.7079 99.0143C96.3894 96.2533 96.0148 93.4993 95.6105 90.751C95.2214 87.9999 94.7212 85.2679 94.2491 82.532C94.2448 82.5058 94.2426 82.4794 94.2423 82.4529V82.4473L94.2491 82.5265C93.5873 78.7727 92.7787 75.0481 91.8903 71.3465C91.0109 67.646 89.8924 64.0041 88.5417 60.4425C87.1525 56.9194 85.5424 53.411 83.091 50.4997C81.9069 49.0199 80.4055 47.8127 78.693 46.9634C76.9395 46.1576 74.9698 45.9192 73.0688 46.2827C73.0614 46.2841 73.0537 46.2841 73.0462 46.2826C73.0388 46.2811 73.0317 46.2782 73.0254 46.274C73.0191 46.2699 73.0137 46.2645 73.0095 46.2583C73.0053 46.2521 73.0023 46.2452 73.0009 46.2379C72.9983 46.2235 73.0014 46.2087 73.0094 46.1965C73.0175 46.1843 73.03 46.1754 73.0444 46.1718Z" fill="#020202"/>
<path d="M50 30.1907C50.722 30.2974 51.4507 30.3089 52.1746 30.2248C52.5077 30.1633 52.8309 30.0336 53.1318 29.8407C53.4488 29.6106 53.7407 29.3279 54 29C53.9187 29.515 53.7054 29.9805 53.3938 30.3225C53.0688 30.6668 52.6763 30.8904 52.259 30.969C51.8557 31.034 51.4464 30.9965 51.0545 30.8586C50.6697 30.7354 50.31 30.5076 50 30.1907Z" fill="#020202"/>
<path d="M112 113C112.268 112.991 112.523 112.882 112.709 112.695C112.896 112.509 113 112.259 113 112C113 111.741 112.896 111.491 112.709 111.305C112.523 111.118 112.268 111.009 112 111C111.732 111.009 111.477 111.118 111.291 111.305C111.104 111.491 111 111.741 111 112C111 112.259 111.104 112.509 111.291 112.695C111.477 112.882 111.732 112.991 112 113Z" fill="#020202"/>
<path d="M108 112C108.268 111.991 108.523 111.882 108.709 111.695C108.896 111.509 109 111.259 109 111C109 110.741 108.896 110.491 108.709 110.305C108.523 110.118 108.268 110.009 108 110C107.732 110.009 107.477 110.118 107.291 110.305C107.104 110.491 107 110.741 107 111C107 111.259 107.104 111.509 107.291 111.695C107.477 111.882 107.732 111.991 108 112Z" fill="#020202"/>
<path d="M104.5 112C104.634 111.991 104.761 111.882 104.855 111.695C104.948 111.509 105 111.259 105 111C105 110.741 104.948 110.491 104.855 110.305C104.761 110.118 104.634 110.009 104.5 110C104.366 110.009 104.239 110.118 104.145 110.305C104.052 110.491 104 110.741 104 111C104 111.259 104.052 111.509 104.145 111.695C104.239 111.882 104.366 111.991 104.5 112Z" fill="#020202"/>
</g>
<defs>
<clipPath id="clip0_233_102">
<rect width="128" height="151" fill="white"/>
</clipPath>
</defs>
</svg>
