<svg width="23" height="19" viewBox="0 0 23 19" fill="none" xmlns="http://www.w3.org/2000/svg">
<path d="M21.8717 15.2048L17.0688 11.1866C16.3171 10.5578 15.2229 10.5576 14.4709 11.1862C13.5028 11.9955 13.5028 13.4836 14.4709 14.293L18.7189 17.8443C19.22 18.2632 20.0447 18.2632 20.5458 17.8443L21.8717 16.7359C22.3728 16.3133 22.3728 15.62 21.8717 15.2048Z" fill="#878787"/>
<path d="M12.0702 11.0327C12.4641 11.3619 13.0372 11.3619 13.4311 11.0327C13.9383 10.6086 13.9383 9.82891 13.4311 9.40485L13.3766 9.35936C12.9031 8.96347 12.8535 8.26329 13.1398 7.7165C14.1959 5.69977 13.7399 3.26084 11.7662 1.6108C9.19874 -0.535631 5.02607 -0.535631 2.45417 1.6108C-0.117719 3.75723 -0.113285 7.24564 2.45417 9.39577C4.45481 11.0683 7.42502 11.4372 9.85602 10.5073C10.484 10.267 11.2094 10.3131 11.7253 10.7443L12.0702 11.0327ZM3.73125 8.31329C1.86885 6.7563 1.86885 4.23174 3.73125 2.67845C5.59366 1.12146 8.61342 1.12146 10.4714 2.67845C12.3338 4.23545 12.3338 6.76 10.4714 8.31329C8.61342 9.87029 5.59366 9.87029 3.73125 8.31329Z" fill="#878787"/>
</svg>
