<svg width="24" height="19" viewBox="0 0 24 19" fill="none" xmlns="http://www.w3.org/2000/svg">
<path d="M11.8069 5.74027L15.2394 8.7464L15.2558 8.58894C15.2558 7.00951 13.7901 5.72595 11.9867 5.72595L11.8069 5.74027Z" fill="black"/>
<path d="M11.9867 3.81733C14.9942 3.81733 17.4351 5.95504 17.4351 8.58898C17.4351 9.20452 17.2935 9.79144 17.0483 10.3306L20.2357 13.122C21.8811 11.9196 23.1779 10.364 23.9788 8.58898C22.0882 4.3995 17.4406 1.43152 11.9867 1.43152C10.4611 1.43152 9.00096 1.67009 7.64429 2.09953L9.99803 4.1561C10.6136 3.94616 11.2838 3.81733 11.9867 3.81733Z" fill="black"/>
<path d="M1.08968 1.21677L3.57418 3.39264L4.07001 3.82687C2.27201 5.05796 0.849961 6.69464 0 8.58896C1.88519 12.7784 6.53817 15.7464 11.9867 15.7464C13.6757 15.7464 15.2884 15.4601 16.765 14.94L17.2281 15.3456L20.4046 18.1322L21.794 16.9202L2.47904 0L1.08968 1.21677ZM7.11572 6.48945L8.7993 7.96389C8.75026 8.16908 8.71757 8.37423 8.71757 8.58896C8.71757 10.1684 10.1832 11.4519 11.9867 11.4519C12.2318 11.4519 12.4661 11.4233 12.695 11.3804L14.3785 12.8548C13.6539 13.1697 12.8475 13.3606 11.9867 13.3606C8.9791 13.3606 6.53817 11.2229 6.53817 8.58896C6.53817 7.83505 6.75612 7.12883 7.11572 6.48945Z" fill="black"/>
</svg>
