<svg width="25" height="21" viewBox="0 0 25 21" fill="none" xmlns="http://www.w3.org/2000/svg">
<g clip-path="url(#clip0_28_179)">
<path d="M11.8566 7.17417L15.2891 10.1803L15.3055 10.0228C15.3055 8.44341 13.8398 7.15985 12.0364 7.15985L11.8566 7.17417Z" fill="black"/>
<path d="M12.0363 5.25122C15.0439 5.25122 17.4848 7.38894 17.4848 10.0229C17.4848 10.6384 17.3432 11.2253 17.098 11.7645L20.2854 14.5559C21.9308 13.3535 23.2275 11.7979 24.0285 10.0229C22.1379 5.83339 17.4903 2.86542 12.0364 2.86542C10.5108 2.86542 9.05064 3.10398 7.69397 3.53343L10.0477 5.59C10.6633 5.38006 11.3335 5.25122 12.0363 5.25122Z" fill="black"/>
<path d="M1.13936 2.65067L3.62386 4.82654L4.11969 5.26077C2.32169 6.49186 0.899644 8.12854 0.0496826 10.0229C1.93487 14.2123 6.58785 17.1803 12.0363 17.1803C13.7254 17.1803 15.3381 16.894 16.8147 16.3739L17.2778 16.7795L20.4543 19.5661L21.8436 18.3541L2.52872 1.4339L1.13936 2.65067ZM7.1654 7.92335L8.84898 9.39779C8.79994 9.60298 8.76725 9.80813 8.76725 10.0229C8.76725 11.6023 10.2329 12.8858 12.0363 12.8858C12.2815 12.8858 12.5158 12.8572 12.7447 12.8143L14.4282 14.2887C13.7036 14.6036 12.8972 14.7945 12.0363 14.7945C9.02878 14.7945 6.58785 12.6568 6.58785 10.0229C6.58785 9.26895 6.8058 8.56273 7.1654 7.92335Z" fill="black"/>
</g>
<defs>
<clipPath id="clip0_28_179">
<rect width="23.9787" height="21" fill="white" transform="translate(0.0496826)"/>
</clipPath>
</defs>
</svg>
