<svg width="22" height="22" viewBox="0 0 22 22" fill="none" xmlns="http://www.w3.org/2000/svg">
<path d="M17.6881 11.009C17.6881 14.1878 17.6881 15.7771 16.7006 16.7646C15.7131 17.7521 14.1238 17.7521 10.9451 17.7521C7.76638 17.7521 6.17702 17.7521 5.18952 16.7646C4.20203 15.7771 4.20203 14.1878 4.20203 11.009C4.20203 7.83034 4.20203 6.24099 5.18952 5.25349C6.17702 4.26599 7.76638 4.26599 10.9451 4.26599" stroke="#02040F" stroke-opacity="0.6" stroke-width="1.01146" stroke-linecap="round"/>
<path d="M13.7468 5.23303L15.3364 6.61062C16.4305 7.55892 16.9776 8.03306 16.9776 8.64888C16.9776 9.26469 16.4305 9.73884 15.3364 10.6871L13.7468 12.0647C13.2657 12.4817 13.0251 12.6902 12.828 12.6002C12.6309 12.5102 12.6309 12.1919 12.6309 11.5552V10.5273C10.608 10.5273 8.41649 11.4665 7.57361 13.0319C7.57361 8.02274 10.5705 6.77046 12.6309 6.77046V5.7426C12.6309 5.1059 12.6309 4.78756 12.828 4.69755C13.0251 4.60755 13.2657 4.81604 13.7468 5.23303Z" stroke="#02040F" stroke-opacity="0.6" stroke-width="1.01146" stroke-linecap="round" stroke-linejoin="round"/>
</svg>
