<svg width="34" height="35" viewBox="0 0 34 35" fill="none" xmlns="http://www.w3.org/2000/svg">
<path fill-rule="evenodd" clip-rule="evenodd" d="M13.5089 7.65965C16.816 4.49398 22.1633 4.49398 25.4705 7.65965C28.7984 10.8452 28.7984 16.0259 25.4705 19.2115L16.5381 27.7617C14.1892 30.0101 10.3955 30.0101 8.04662 27.7617C5.67693 25.4934 5.67693 21.7998 8.04662 19.5315L16.8505 11.1043C18.2411 9.77318 20.4812 9.77318 21.8718 11.1043C23.2833 12.4554 23.2833 14.6618 21.8718 16.0129L13.0037 24.5016C12.6675 24.8235 12.1339 24.8118 11.812 24.4755C11.4901 24.1392 11.5018 23.6057 11.8381 23.2838L20.7062 14.7951C21.4242 14.1078 21.4242 13.0094 20.7062 12.3221C19.9674 11.6149 18.7549 11.6149 18.0161 12.3221L9.2123 20.7493C7.53605 22.3538 7.53605 24.9394 9.2123 26.5439C10.9093 28.1684 13.6754 28.1684 15.3724 26.5439L24.3048 17.9937C26.9393 15.4719 26.9393 11.3992 24.3048 8.87743C21.6495 6.33574 17.3298 6.33574 14.6745 8.87743L7.47724 15.7668C7.14096 16.0887 6.6074 16.077 6.28551 15.7408C5.96361 15.4045 5.97528 14.8709 6.31156 14.549L13.5089 7.65965Z" fill="#02040F"/>
</svg>
