<svg width="21" height="21" viewBox="0 0 21 21" fill="none" xmlns="http://www.w3.org/2000/svg">
<path d="M16.8577 10.1145C16.8577 13.2932 16.8577 14.8826 15.8702 15.8701C14.8827 16.8576 13.2933 16.8576 10.1146 16.8576C6.93593 16.8576 5.34658 16.8576 4.35908 15.8701C3.37158 14.8826 3.37158 13.2932 3.37158 10.1145C3.37158 6.93581 3.37158 5.34646 4.35908 4.35896C5.34658 3.37146 6.93593 3.37146 10.1146 3.37146" stroke="#02040F" stroke-opacity="0.6" stroke-width="1.01146" stroke-linecap="round"/>
<path d="M12.9164 4.33862L14.5059 5.71621C15.6001 6.66451 16.1472 7.13866 16.1472 7.75447C16.1472 8.37028 15.6001 8.84443 14.5059 9.79273L12.9164 11.1703C12.4352 11.5873 12.1947 11.7958 11.9976 11.7058C11.8005 11.6158 11.8005 11.2974 11.8005 10.6608V9.63289C9.77754 9.63289 7.58605 10.5721 6.74316 12.1375C6.74316 7.12833 9.74008 5.87605 11.8005 5.87605V4.84819C11.8005 4.2115 11.8005 3.89315 11.9976 3.80314C12.1947 3.71314 12.4352 3.92163 12.9164 4.33862Z" stroke="#02040F" stroke-opacity="0.6" stroke-width="1.01146" stroke-linecap="round" stroke-linejoin="round"/>
</svg>
