<svg width="21" height="21" viewBox="0 0 21 21" fill="none" xmlns="http://www.w3.org/2000/svg">
<path d="M17.2451 10.5167C17.2451 13.6954 17.2451 15.2848 16.2576 16.2723C15.2701 17.2598 13.6808 17.2598 10.5021 17.2598C7.32338 17.2598 5.73403 17.2598 4.74653 16.2723C3.75903 15.2848 3.75903 13.6954 3.75903 10.5167C3.75903 7.33803 3.75903 5.74868 4.74653 4.76118C5.73403 3.77368 7.32338 3.77368 10.5021 3.77368" stroke="#02040F" stroke-opacity="0.6" stroke-width="1.01146" stroke-linecap="round"/>
<path d="M13.3038 4.74072L14.8934 6.11831C15.9875 7.06661 16.5346 7.54075 16.5346 8.15657C16.5346 8.77238 15.9875 9.24653 14.8934 10.1948L13.3038 11.5724C12.8227 11.9894 12.5821 12.1979 12.385 12.1079C12.1879 12.0179 12.1879 11.6995 12.1879 11.0629V10.035C10.165 10.035 7.9735 10.9742 7.13062 12.5396C7.13062 7.53043 10.1275 6.27815 12.1879 6.27815V5.25029C12.1879 4.6136 12.1879 4.29525 12.385 4.20524C12.5821 4.11524 12.8227 4.32373 13.3038 4.74072Z" stroke="#02040F" stroke-opacity="0.6" stroke-width="1.01146" stroke-linecap="round" stroke-linejoin="round"/>
</svg>
