<svg width="35" height="35" viewBox="0 0 35 35" fill="none" xmlns="http://www.w3.org/2000/svg">
<path fill-rule="evenodd" clip-rule="evenodd" d="M14.3539 8.3226L21.9574 11.7435C24.2687 12.7834 26.0878 13.6018 27.3218 14.3768C28.5406 15.1422 29.4931 16.0498 29.4931 17.3667C29.4931 18.6836 28.5406 19.5912 27.3218 20.3567C26.0878 21.1317 24.2687 21.9501 21.9574 22.99L14.3539 26.4109C12.9412 27.0465 11.8422 27.5409 10.9841 27.8618C10.1444 28.1758 9.39388 28.382 8.72656 28.3095C7.10798 28.1335 5.71521 27.0236 5.37812 25.4566C5.23526 24.7925 5.43503 24.0495 5.72205 23.2777C6.01923 22.4786 6.49156 21.4526 7.09329 20.1454L7.10952 20.1102C7.5798 19.0886 7.76079 18.6855 7.85314 18.2833C7.99205 17.6783 7.99205 17.0551 7.85314 16.4502C7.76079 16.048 7.5798 15.6449 7.10952 14.6233L7.09329 14.588C6.49156 13.2809 6.01923 12.2549 5.72205 11.4557C5.43503 10.684 5.23526 9.94101 5.37812 9.27688C5.71521 7.70992 7.10798 6.6 8.72656 6.42399C9.39388 6.35143 10.1444 6.55765 10.9841 6.87166C11.8422 7.19255 12.9412 7.68701 14.3539 8.3226ZM10.3936 8.45064C9.56855 8.1421 9.14704 8.07397 8.9088 8.09988C7.91076 8.20841 7.18999 8.86996 7.02619 9.63141C6.99571 9.77309 7.01699 10.1015 7.30209 10.8681C7.57436 11.6003 8.01938 12.5684 8.64082 13.9184C8.65443 13.9479 8.66789 13.9772 8.68119 14.006C9.09814 14.9115 9.36005 15.4803 9.49614 16.0729C9.69207 16.9261 9.69207 17.8073 9.49614 18.6606C9.36005 19.2532 9.09814 19.822 8.68118 20.7275C8.66789 20.7563 8.65443 20.7855 8.64082 20.8151C8.01938 22.1651 7.57436 23.1332 7.30209 23.8653C7.01699 24.6319 6.99571 24.9604 7.02619 25.1021C7.18999 25.8635 7.91076 26.5251 8.9088 26.6336C9.14704 26.6595 9.56855 26.5914 10.3936 26.2828C11.1942 25.9835 12.2432 25.512 13.6927 24.8598L21.1976 21.4833C23.5917 20.4062 25.3024 19.6343 26.4252 18.9291C27.5753 18.2069 27.8073 17.7376 27.8073 17.3667C27.8073 16.9958 27.5753 16.5266 26.4252 15.8043C25.3024 15.0992 23.5917 14.3273 21.1976 13.2502L13.6927 9.87364C12.2432 9.22149 11.1942 8.74999 10.3936 8.45064Z" fill="#02040F"/>
</svg>
