<svg width="14" height="18" viewBox="0 0 14 18" fill="none" xmlns="http://www.w3.org/2000/svg">
<path d="M13.5012 0.0456487C13.378 0.702363 10.591 1.2334 7.17032 1.2334C3.6732 1.2334 0.833434 0.679505 0.833434 0C0.722061 8.60055e-05 0.611828 0.0218712 0.509248 0.0640852C0.406668 0.106299 0.31382 0.168093 0.236169 0.245795C0.158517 0.323497 0.0976336 0.415543 0.0571244 0.516511C0.0166153 0.617479 -0.00270111 0.725313 0.000303723 0.833665L0.393372 15.6122C0.397162 15.7458 0.434415 15.8766 0.501892 15.993C0.56937 16.1095 0.665033 16.2081 0.780578 16.2804C2.72056 17.46 4.97489 18.0567 7.26153 17.9958C9.54817 17.9348 11.7656 17.2189 13.6363 15.9377C13.7489 15.8629 13.841 15.7624 13.9044 15.6449C13.9678 15.5275 14.0006 15.3966 14 15.2639V0.736595C13.9998 0.585528 13.9518 0.438184 13.8625 0.314576C13.7733 0.190967 13.6472 0.0970745 13.5012 0.0456487ZM6.26086 14.396C5.60852 14.4491 4.95362 14.3284 4.36647 14.0467C3.77932 13.765 3.28209 13.333 2.92818 12.797C1.95118 11.4492 1.55327 9.78347 1.81915 8.15443C1.97402 7.09788 2.32176 6.0768 2.84596 5.13938C3.14952 4.60767 3.60461 4.17275 4.15637 3.88703C4.70814 3.6013 5.33303 3.47695 5.95574 3.529C6.24414 3.52051 6.527 3.60735 6.7582 3.77535C6.98941 3.94334 7.15533 4.18259 7.22893 4.45411C7.27148 4.69358 7.2531 4.93953 7.17539 5.17048C7.09767 5.40143 6.963 5.61033 6.78315 5.77891C5.83255 6.72121 3.65574 9.3137 5.97336 11.2381C8.1384 13.0369 7.88614 14.2189 6.26086 14.396Z" fill="#020202"/>
</svg>
