<svg width="4" height="7" viewBox="0 0 4 7" fill="none" xmlns="http://www.w3.org/2000/svg">
<path d="M0 7C0.5792 6.61113 1.10746 6.15134 1.57248 5.63134C2.02762 5.12658 2.41775 4.56682 2.73377 3.96514C3.04638 3.35892 3.29261 2.72073 3.46818 2.06166C3.57743 1.73345 3.61729 1.38803 3.70558 1.04779C3.77148 0.703906 3.80925 0.35434 3.88902 0C3.94523 0.355274 3.9822 0.713326 3.99978 1.07259C4.00258 1.43516 3.97849 1.79743 3.92772 2.15644C3.82586 2.88485 3.60199 3.59091 3.26552 4.24497C2.91985 4.89796 2.45644 5.48146 1.89864 5.96607C1.35637 6.45585 0.705702 6.81018 0 7Z" fill="#020202"/>
</svg>
