<svg width="8" height="8" viewBox="0 0 8 8" fill="none" xmlns="http://www.w3.org/2000/svg">
<path d="M0 5.06113L1.86369 2.64925L3.84039 0.169597L3.97561 0L4.15874 0.130817C5.34414 0.9777 6.5218 1.83717 7.69173 2.70924L8 2.93789L7.7243 3.21256C6.1367 4.79448 4.53799 6.36294 2.89911 7.88258L2.77246 8L2.65879 7.8852C1.7174 6.93483 0.839883 5.95173 0 5.06113ZM0 5.06113C1.01187 5.9532 1.98604 6.75275 2.89636 7.585L2.65622 7.58757C4.18468 5.93392 5.7534 4.32903 7.33316 2.73759L7.36569 3.24073C6.19855 2.36412 5.03726 1.47794 3.88183 0.582195L4.19995 0.543415L2.1565 2.76845L0 5.06113Z" fill="#020202"/>
</svg>
