<svg width="48" height="15" viewBox="0 0 48 15" fill="none" xmlns="http://www.w3.org/2000/svg">
<path d="M0.110705 4.00451C0.712394 5.16405 1.38308 6.28527 2.09157 7.37268C2.79164 8.45595 3.56974 9.49101 4.4202 10.4703C5.24926 11.4327 6.21155 12.2819 7.28038 12.9944C8.31725 13.6991 9.52748 14.133 10.7921 14.2534L10.7153 14.2596C14.0155 13.7392 17.2458 12.8711 20.3474 11.6711C23.4636 10.4895 26.5069 9.14769 29.5772 7.87979L38.7273 3.92843C40.2602 3.28254 41.7648 2.57946 43.3112 1.95424C44.834 1.28323 46.3647 0.624754 47.9191 0.00465238C47.9332 -0.00125344 47.9491 -0.0015465 47.9634 0.00383012C47.9778 0.00920674 47.9893 0.019809 47.9954 0.0333194C48.0008 0.0455722 48.0015 0.0592385 47.9974 0.0719284C47.9933 0.0846183 47.9847 0.095529 47.9731 0.102763C46.5473 0.958029 45.0997 1.77857 43.6407 2.57994C42.1768 3.37275 40.6853 4.11552 39.1963 4.86478C36.2014 6.33024 33.1484 7.69132 30.0158 8.87101C26.9099 10.1106 23.7218 11.1588 20.5081 12.108L15.703 13.5672C14.0986 14.0586 12.5208 14.5894 10.8572 14.9931C10.8439 14.9963 10.8302 14.9982 10.8165 14.9985L10.78 14.9993C9.32895 15.0195 7.90713 14.6073 6.7108 13.8196C5.55053 13.0585 4.52764 12.1208 3.68251 11.0437C2.84689 9.99439 2.11858 8.87041 1.50769 7.68725C0.894226 6.51775 0.390451 5.29824 0.00231986 4.04314C-0.00198484 4.02899 -0.000252869 4.01377 0.00713353 4.00085C0.0145199 3.98792 0.0269535 3.97835 0.0417062 3.97422C0.0550878 3.97089 0.0692554 3.97208 0.0818233 3.9776C0.0943912 3.98312 0.10459 3.99262 0.110705 4.00451Z" fill="#020202"/>
</svg>
