<svg width="39" height="41" viewBox="0 0 39 41" fill="none" xmlns="http://www.w3.org/2000/svg">
<path d="M37.8284 26.0447C38.3631 24.4531 38.6972 22.8009 38.8231 21.1264C38.8914 20.2912 38.9025 19.4523 38.8563 18.6155C38.8426 18.1972 38.7634 17.7833 38.7203 17.3675C38.6823 16.9509 38.6166 16.5373 38.5237 16.1295L38.2495 14.906C38.1509 14.5004 37.9979 14.1095 37.875 13.711C37.6115 12.9197 37.2995 12.1453 36.9408 11.3924C36.201 9.90035 35.2774 8.50694 34.1916 7.24473L33.7944 6.7653C33.6539 6.6129 33.5015 6.47132 33.3557 6.32378L32.4725 5.44708L31.5103 4.65875L31.0284 4.26602C30.8614 4.14382 30.6842 4.0354 30.5127 3.91938L29.4762 3.23384C29.1192 3.02482 28.7486 2.83844 28.3855 2.63934C27.6533 2.25115 26.8969 1.91065 26.121 1.61998C22.9878 0.473399 19.6158 0.139812 16.3192 0.650316C15.498 0.787742 14.6866 0.978157 13.8901 1.22038C13.495 1.35106 13.0842 1.43974 12.7012 1.60494L11.544 2.08047C9.25486 3.1139 7.19351 4.59229 5.4796 6.42983C3.76569 8.26737 2.43334 10.4275 1.55985 12.7848C0.378474 15.9224 0.0472605 19.3171 0.599826 22.6243C1.14686 25.9199 2.54095 29.0162 4.64504 31.6089L4.73804 31.7234L4.68881 31.8653L1.62329 40.6991L1.28012 40.3043L13.5837 37.8173L13.6592 37.8021L13.7333 37.8256C18.4763 39.3533 23.6234 39.0048 28.1177 36.8515C30.3661 35.7774 32.381 34.2701 34.0472 32.4158C35.7134 30.5615 36.9983 28.3966 37.8284 26.0447V26.0447ZM37.8835 26.0641C36.2094 30.8543 32.7697 34.8224 28.2689 37.1558C23.7199 39.5014 18.4278 39.9459 13.5521 38.3919L13.7015 38.4002L1.39926 40.8944L0.878285 41L1.05603 40.4994L4.18472 31.6878L4.22845 31.9439C2.11224 29.2663 0.730706 26.0819 0.220502 22.7056C-0.289702 19.3294 0.0890911 15.8782 1.31941 12.6935C2.55264 9.52727 4.57183 6.7282 7.18616 4.56087C9.80049 2.39354 12.9236 0.929548 16.2603 0.307266C19.6204 -0.296698 23.08 -0.00701915 26.2933 1.14735C29.5105 2.30905 32.3573 4.31433 34.5363 6.95381C34.8015 7.2858 35.0768 7.61016 35.33 7.9505L36.0252 9.01812C36.263 9.36956 36.4751 9.73781 36.6596 10.12C36.8515 10.4981 37.0624 10.8667 37.2381 11.2518C37.5818 12.0258 37.878 12.8201 38.125 13.6302C38.2394 14.0374 38.3836 14.4365 38.4731 14.8495L38.7189 16.0934C39.2827 19.4344 38.9954 22.8639 37.8835 26.0641H37.8835Z" fill="black"/>
</svg>
