<svg width="4" height="5" viewBox="0 0 4 5" fill="none" xmlns="http://www.w3.org/2000/svg">
<path d="M0 0.360709C0.265734 0.174909 0.566992 0.0566171 0.881125 0.0147193C1.22623 -0.0376682 1.57701 0.0508656 1.86492 0.263027C2.15115 0.491857 2.3559 0.820031 2.44486 1.19255C2.53478 1.53335 2.57652 1.88688 2.56866 2.24116C2.51946 2.85504 2.56031 3.47347 2.6897 4.07357C2.72566 4.20509 2.78558 4.32753 2.86593 4.43369C2.94628 4.53985 3.04545 4.6276 3.15761 4.69179C3.42428 4.81133 3.71903 4.83705 4 4.76531C3.72871 4.96608 3.39477 5.04235 3.07149 4.97737C2.90015 4.92864 2.74087 4.83964 2.60501 4.71675C2.46916 4.59386 2.36007 4.4401 2.28554 4.26642C2.0484 3.62247 1.95167 2.92817 2.00284 2.23733C2.06736 1.66551 1.91929 1.08939 1.59114 0.635396C1.36194 0.463667 1.09994 0.349819 0.824522 0.302271C0.549104 0.254723 0.267311 0.274697 0 0.360709Z" fill="#020202"/>
</svg>
