<svg width="23" height="94" viewBox="0 0 23 94" fill="none" xmlns="http://www.w3.org/2000/svg">
<path d="M22.9747 0.104935C21.5129 1.47531 20.1757 2.96453 18.9779 4.55616C17.7397 6.11872 16.588 7.74508 15.479 9.39634C13.2459 12.6806 11.1152 16.0714 9.23823 19.5358C5.52326 26.4839 2.65498 34.0104 1.61125 41.846C1.54283 42.3336 1.48496 42.823 1.436 43.3108C1.39959 43.7822 1.41965 44.2929 1.41738 44.7824L1.4315 47.7492L1.47357 53.6825C1.4875 57.6371 1.47638 61.5903 1.44023 65.5421C1.42275 73.4477 1.24084 81.3468 0.96765 89.2476L0.87598 88.9677C1.61258 89.9136 2.46324 90.7714 3.40996 91.5229C4.34541 92.2849 5.42551 92.8637 6.58995 93.2269C7.76023 93.5696 9.01104 93.5583 10.1744 93.1943C11.3489 92.7794 12.4163 92.1233 13.3028 91.2713C13.3085 91.266 13.3151 91.2619 13.3224 91.2591C13.3297 91.2564 13.3374 91.255 13.3453 91.2551C13.3531 91.2553 13.3608 91.2569 13.368 91.2599C13.3751 91.2629 13.3816 91.2673 13.3871 91.2727C13.3973 91.2832 13.4031 91.297 13.4035 91.3114C13.4038 91.3259 13.3986 91.3399 13.3888 91.3508C12.5517 92.3041 11.4995 93.0593 10.3132 93.5585C9.0793 94.0419 7.71768 94.131 6.42762 93.8128C5.15437 93.4839 3.95974 92.9182 2.9106 92.1476C1.85443 91.3959 0.908099 90.5099 0.0972143 89.5137C0.0380771 89.4416 0.00578871 89.3524 0.00554404 89.2604L0.00548385 89.2336C-0.0208138 81.3231 0.0441048 73.411 0.273512 65.5054C0.362613 61.5518 0.47493 57.5993 0.610459 53.6481L0.837739 47.723L0.944397 44.7605C0.972068 44.2626 0.960624 43.7826 1.00457 43.2693C1.06175 42.7742 1.12815 42.2816 1.20378 41.7916C1.8415 37.8737 2.72733 33.9974 3.85628 30.1843C4.96808 26.3508 6.45418 22.6279 8.29455 19.0658C8.76528 18.1795 9.27676 17.3126 9.78218 16.4442L11.3788 13.8993C12.4777 12.2235 13.5725 10.5441 14.7676 8.92796C17.1718 5.72299 19.6691 2.50444 22.9038 0.0124834C22.9158 0.00326216 22.931 -0.00111822 22.9462 0.000243821C22.9615 0.00160586 22.9756 0.00860509 22.9856 0.0197904C22.9956 0.0309756 23.0007 0.0454735 22.9999 0.0602402C22.9991 0.0750069 22.9924 0.0888961 22.9813 0.0990038L22.9747 0.104935Z" fill="#020202"/>
</svg>
