<svg width="18" height="18" viewBox="0 0 18 18" fill="none" xmlns="http://www.w3.org/2000/svg">
<path d="M4.30706 0.792052C4.00959 0.609101 3.69557 0.452275 3.36881 0.323479C3.21186 0.260049 3.04666 0.217471 2.87775 0.19692C2.71353 0.177562 2.57147 0.211786 2.53689 0.320819C2.49927 0.627258 2.55826 0.937493 2.70623 1.21135C2.84102 1.51926 2.99272 1.82008 3.1607 2.11255L3.11615 2.05443C4.15137 2.88817 5.23484 3.68065 6.32617 4.44665C7.42761 5.20167 8.5416 5.9381 9.70046 6.59498C10.8435 7.26239 12.0337 7.85226 13.2623 8.36028C14.4609 8.85874 15.7242 9.1989 17.0178 9.37146L17.0455 9.37465C17.117 9.38291 17.1861 9.40489 17.2486 9.43926C17.3111 9.47364 17.3658 9.51972 17.4094 9.57478C17.6787 9.9045 17.8664 10.2888 17.9582 10.6986C18.0568 11.1539 17.9796 11.6282 17.741 12.0329C17.5104 12.396 17.1865 12.6961 16.8004 12.9044C16.5941 13.0154 16.4239 13.1793 16.3089 13.3779C16.06 13.8669 15.9534 14.4114 16.0005 14.9539C16.0254 15.555 16.1207 16.1516 16.2847 16.7322L16.2953 16.7705C16.3226 16.8675 16.3179 16.9702 16.2817 17.0644C16.2133 17.2532 16.1068 17.4272 15.9684 17.5764C15.8195 17.7377 15.6313 17.8612 15.4208 17.9359C15.0294 18.049 14.6077 18.0114 14.2446 17.8312C13.7388 17.5556 13.2894 17.1939 12.9184 16.7637C12.8951 16.7394 12.8746 16.7129 12.8571 16.6845L12.8472 16.6681C12.6792 16.4093 12.4828 16.1687 12.2613 15.9502C12.0279 15.7163 11.7761 15.4999 11.5081 15.3032C10.9578 14.9106 10.3583 14.5863 9.72357 14.3379L9.70332 14.3298C9.62521 14.2987 9.55733 14.2478 9.5069 14.1826C8.88283 13.3707 8.19093 12.5724 7.48407 11.8055C6.77896 11.033 6.04701 10.2801 5.2662 9.57814C4.50145 8.85827 3.68269 8.19338 2.81652 7.58883C1.94625 6.98153 0.999995 6.48176 0 6.10125C1.05763 6.36018 2.0687 6.77055 2.99925 7.31858C3.9387 7.85665 4.83351 8.46363 5.6757 9.13409C6.52025 9.80161 7.31607 10.5218 8.08738 11.2652C8.85051 12.0202 9.58195 12.7878 10.2831 13.6167L10.0667 13.4616C10.8023 13.7091 11.498 14.055 12.1333 14.4889C12.4532 14.7104 12.7548 14.9553 13.0353 15.2216C13.3331 15.4988 13.5961 15.8086 13.819 16.1445L13.7479 16.0491C14.0306 16.3601 14.3658 16.6232 14.7395 16.8273C14.8276 16.8744 14.9288 16.894 15.029 16.8837C15.0441 16.8699 15.0672 16.8702 15.0959 16.8324C15.1234 16.7985 15.1472 16.7619 15.1669 16.7232L15.164 17.0552C14.9645 16.3831 14.8466 15.6911 14.8125 14.993C14.7478 14.2338 14.9047 13.4723 15.2655 12.794C15.4887 12.4266 15.8086 12.1221 16.1931 11.9113C16.4016 11.8053 16.5793 11.6511 16.7102 11.4626C16.8102 11.2979 16.8423 11.1031 16.8001 10.9168C16.747 10.6896 16.6459 10.4752 16.5032 10.287L16.8945 10.4902C15.4853 10.2978 14.1143 9.90283 12.8274 9.31844C11.563 8.76472 10.3486 8.1111 9.19675 7.3643C8.04612 6.63731 6.93841 5.84945 5.87873 5.00438C4.81232 4.17272 3.79324 3.28652 2.8259 2.34966L2.81333 2.33738C2.79978 2.32405 2.78889 2.30845 2.78119 2.29135C2.63471 1.97302 2.50603 1.6474 2.39569 1.31588C2.33967 1.14595 2.2976 0.972073 2.26984 0.795835C2.22767 0.602635 2.2474 0.401692 2.32643 0.219477C2.35363 0.168134 2.39223 0.123161 2.43951 0.0877357C2.48679 0.0523103 2.54159 0.0273032 2.60004 0.0144736C2.70138 -0.00592386 2.80613 -0.00474867 2.90694 0.0179152C3.08702 0.0602339 3.26018 0.126144 3.42156 0.213806C3.73425 0.380529 4.03062 0.574069 4.30706 0.792052Z" fill="#020202"/>
</svg>
