<svg width="38" height="72" viewBox="0 0 38 72" fill="none" xmlns="http://www.w3.org/2000/svg">
<path d="M19.0519 0.052776C19.2512 2.38412 19.4438 4.71619 19.675 7.0424C19.7933 8.20436 19.9158 9.36861 20.0849 10.516C20.2847 11.6827 20.3822 12.864 20.3766 14.047C20.407 16.4033 20.2878 18.7592 20.0198 21.101C19.948 21.6833 19.8473 22.2911 19.7325 22.8577C19.6244 23.4268 19.5284 23.997 19.4445 24.5682C19.2726 25.7073 19.179 26.8566 19.1645 28.0081C19.0944 30.3143 19.2753 32.6212 19.7043 34.8896C19.8187 35.4459 19.9635 35.9957 20.1381 36.5367C20.3067 37.0796 20.5433 37.5613 20.7656 38.1623C21.1587 39.3045 21.4332 40.4827 21.5849 41.6792C21.877 44.0407 21.9096 46.4262 21.6823 48.7946C21.5782 49.9878 21.3739 51.1706 21.0714 52.3307C20.9162 52.9317 20.6923 53.5135 20.404 54.0651C20.247 54.3664 20.045 54.643 19.8049 54.8857C19.6624 55.0354 19.4911 55.1559 19.3009 55.2402C19.1108 55.3245 18.9055 55.3709 18.697 55.3769L18.8106 55.3624C17.6581 55.6174 16.5449 55.7737 15.409 55.9213C14.2781 56.0653 13.1456 56.1795 12.0124 56.2743C9.74602 56.4655 7.47689 56.5839 5.20766 56.654L5.23398 56.6516C4.41117 56.7476 3.61079 56.9795 2.86666 57.3375C2.5242 57.5254 2.23399 57.7978 2.26619 58.0888C2.36331 58.4427 2.58384 58.752 2.88933 58.9625C2.93491 59.0009 2.9631 59.0555 2.96769 59.1143C2.97228 59.1732 2.9529 59.2313 2.91381 59.2761C2.88954 59.3034 2.85904 59.3247 2.8248 59.3383C2.15827 59.5821 1.53518 59.9279 0.978612 60.3629C0.719614 60.5565 0.526064 60.8223 0.423205 61.1257C0.400497 61.2718 0.416226 61.4212 0.468897 61.5597C0.521568 61.6982 0.609431 61.8212 0.724128 61.9169C0.976174 62.152 1.26333 62.3479 1.57566 62.4978C1.88705 62.6471 2.22149 62.7447 2.56537 62.7866C3.26629 62.8813 3.98023 62.7973 4.63852 62.5426C4.6606 62.5342 4.68414 62.5301 4.70781 62.5306C4.73148 62.5312 4.75483 62.5363 4.77649 62.5457C4.79815 62.5551 4.81772 62.5686 4.83407 62.5854C4.85043 62.6022 4.86324 62.622 4.8718 62.6437C4.88598 62.6806 4.88737 62.721 4.87576 62.7588C4.86414 62.7965 4.84017 62.8295 4.80756 62.8525C4.2285 63.2367 3.72947 63.726 3.33727 64.2941C3.15216 64.5492 3.06907 64.8622 3.10386 65.1736C3.14597 65.3196 3.21912 65.4552 3.31849 65.5714C3.41786 65.6876 3.54119 65.7818 3.68034 65.8478L3.70114 65.8616C3.99632 65.988 4.31661 66.0478 4.63842 66.0365C4.98853 66.0366 5.33804 66.008 5.68331 65.951C6.38347 65.8233 7.07234 65.6418 7.74353 65.4081C9.09293 64.9248 10.4056 64.3477 11.6715 63.6813C11.7221 63.6552 11.7809 63.6492 11.8358 63.6645C11.8908 63.6798 11.9377 63.7153 11.9668 63.7635C11.9959 63.8117 12.0051 63.8691 11.9924 63.9238C11.9797 63.9785 11.9461 64.0263 11.8986 64.0574L11.8916 64.0619C11.1177 64.5557 10.4 65.1296 9.75071 65.7737C9.087 66.3421 8.64586 67.12 8.50328 67.9735C8.4948 68.1653 8.533 68.3563 8.61471 68.5307C8.65388 68.6193 8.70142 68.704 8.75671 68.7838C8.78462 68.8237 8.81876 68.8588 8.84881 68.8969L8.89492 68.9532C8.9277 68.9895 8.87125 68.9341 8.90288 68.9577C9.28481 69.0687 9.69083 69.072 10.0746 68.9671C10.9617 68.7564 11.8196 68.441 12.6295 68.0277C14.2833 67.1835 15.8693 66.2169 17.3738 65.1364C18.9021 64.0791 20.378 62.944 21.8471 61.8022L21.8209 61.8243C22.3362 61.3689 22.9009 60.9707 23.505 60.6368C24.1263 60.278 24.8133 60.0423 25.5269 59.9431C25.9181 59.8909 26.316 59.9172 26.6964 60.0205C27.0769 60.1238 27.4321 60.3019 27.7404 60.5441C28.3039 61.0272 28.7293 61.6464 28.9747 62.3404C29.4137 63.6135 29.6499 64.9456 29.6749 66.2895C29.7113 66.951 29.6839 67.6078 29.7314 68.1996C29.773 68.7924 29.8937 69.3772 30.0902 69.9392C30.1739 70.1882 30.2959 70.4231 30.4519 70.6358C30.6017 70.8181 30.7181 70.8729 30.8317 70.8724C31.0215 70.8533 31.2002 70.7752 31.3418 70.6496C31.5158 70.4898 31.6493 70.2923 31.7316 70.0728C31.8385 69.8019 31.9233 69.5231 31.9853 69.239C32.0662 68.913 32.1545 68.5925 32.2502 68.2774C32.4415 67.6486 32.646 67.0451 32.8113 66.4443C33.4228 64.0249 33.4782 61.5021 32.9736 59.059C32.964 58.9997 32.963 58.9393 32.9707 58.8797C33.6265 54.0527 34.2146 49.2078 34.6887 44.3619C34.9109 41.9383 35.1458 39.5141 35.2515 37.095C35.2886 36.4891 35.2827 35.8895 35.3007 35.2862L35.2582 33.4786L35.2348 32.5435L35.251 31.6208C35.2568 31.0049 35.277 30.3919 35.3061 29.7806C35.5013 24.8857 35.9485 20.0239 36.3772 15.1586C36.8088 10.2944 37.3484 5.44063 37.8837 0.587576C37.8853 0.5726 37.8929 0.558852 37.9047 0.54931C37.9166 0.539767 37.9318 0.535196 37.9471 0.536587C37.9623 0.537977 37.9764 0.545221 37.9863 0.556743C37.9962 0.568265 38.001 0.583142 37.9998 0.598156C37.6324 5.46545 37.3358 10.338 37.0042 15.2057C36.7018 20.0737 36.4016 24.9484 36.2653 29.8095C36.2461 30.4176 36.2359 31.0242 36.24 31.6284L36.2386 32.5359L36.2755 33.4299L36.3487 35.2807C36.3407 35.897 36.356 36.5183 36.3283 37.1312C36.2503 39.5894 36.0855 42.032 35.8564 44.4681C35.3968 49.3398 34.8249 54.1906 34.1831 59.0406L34.1803 58.8615C34.4132 60.1616 34.5363 61.4783 34.5485 62.7983C34.545 64.1391 34.3512 65.4729 33.9726 66.7612C33.7899 67.3996 33.5747 68.0142 33.3858 68.615C33.2921 68.915 33.2065 69.214 33.129 69.5118C33.0494 69.8554 32.9417 70.1922 32.807 70.5188C32.6605 70.93 32.394 71.2898 32.0406 71.5532C31.6873 71.8167 31.2628 71.972 30.8202 72C30.553 71.9959 30.2919 71.9213 30.0642 71.7839C29.8663 71.6617 29.6928 71.5049 29.5524 71.3213C29.3236 71.0128 29.1457 70.6708 29.0254 70.3079C28.8013 69.651 28.6664 68.9678 28.6242 68.2762C28.5785 67.5851 28.6144 66.9547 28.5849 66.3322C28.5758 65.1013 28.3754 63.879 27.9906 62.7076C27.8161 62.1771 27.5067 61.6992 27.0915 61.3191C26.89 61.1553 26.6561 61.0342 26.4046 60.9635C26.1532 60.8929 25.8895 60.8741 25.6303 60.9084C24.4381 61.1294 23.334 61.6775 22.4458 62.4893L22.4195 62.5115C20.9211 63.6423 19.414 64.7638 17.8364 65.795C16.2754 66.8613 14.6339 67.8094 12.9263 68.6309C12.0543 69.0492 11.1341 69.3628 10.1858 69.565C9.65556 69.6997 9.09492 69.659 8.59061 69.4492C8.54227 69.4223 8.49916 69.3872 8.46327 69.3456L8.39929 69.2666C8.35773 69.2132 8.31274 69.1619 8.2752 69.1061C8.20012 68.9937 8.13618 68.8744 8.08425 68.75C7.97543 68.4999 7.92689 68.2285 7.94243 67.9569C7.98171 67.446 8.15938 66.9547 8.45704 66.5339C8.72648 66.132 9.04024 65.7605 9.39261 65.4261C10.0818 64.7688 10.8412 64.1864 11.6576 63.6892L11.8776 64.0698C11.2242 64.3833 10.577 64.7085 9.90895 64.9941C9.24475 65.2868 8.56708 65.551 7.87593 65.7866C7.18158 66.0226 6.46935 66.2044 5.74587 66.3303C5.37729 66.3884 5.00439 66.4159 4.63111 66.4127C4.22755 66.427 3.82723 66.337 3.47019 66.1517L3.49077 66.1655C3.30659 66.0726 3.14468 65.9422 3.01588 65.7829C2.88708 65.6237 2.79433 65.4393 2.74383 65.2421C2.69299 64.8426 2.79565 64.4389 3.03175 64.1097C3.23603 63.7997 3.47816 63.5154 3.75276 63.2632C4.01844 63.0092 4.3027 62.7746 4.60324 62.5613L4.77226 62.8711C4.05685 63.1559 3.27884 63.2549 2.51315 63.1587C2.12492 63.1149 1.7469 63.0075 1.39475 62.8411C1.04334 62.6758 0.720018 62.4583 0.436198 62.1961C0.272299 62.0537 0.147894 61.8727 0.0746252 61.6702C0.00135622 61.4676 -0.01838 61.2501 0.0172771 61.038C0.134386 60.6465 0.37226 60.3003 0.698103 60.0471C1.28905 59.5725 1.9536 59.1939 2.66649 58.9258L2.60196 59.3014C2.19655 59.0222 1.91255 58.6038 1.80609 58.1288C1.78776 57.8557 1.87938 57.5863 2.06121 57.3789C2.21946 57.1972 2.40804 57.0434 2.61888 56.9239C3.01112 56.704 3.42883 56.5312 3.86301 56.4092C4.28743 56.2836 4.71953 56.1846 5.15671 56.1128L5.17387 56.1108L5.18325 56.1103C7.44184 55.9843 9.69686 55.8096 11.9411 55.5645C13.0632 55.4434 14.1827 55.3032 15.2955 55.1341C16.4018 54.9646 17.5303 54.7743 18.5831 54.5146L18.6045 54.5094C18.6347 54.5021 18.6658 54.499 18.6969 54.5001C18.9802 54.5123 19.344 54.1109 19.5743 53.6389C19.8135 53.1408 20.0022 52.6207 20.1375 52.0862C20.4166 50.9764 20.6021 49.846 20.6921 48.7062C20.8939 46.4103 20.8443 44.0998 20.5443 41.8143C20.413 40.6859 20.1663 39.5734 19.8079 38.4936C19.6308 37.9928 19.3602 37.4121 19.1866 36.8327C19.0067 36.2567 18.8585 35.6717 18.7427 35.0801C18.3221 32.7404 18.1578 30.3632 18.2526 27.9891C18.2795 26.8006 18.3877 25.6153 18.5764 24.4411C18.6657 23.8547 18.7819 23.2737 18.9052 22.6955C19.0364 22.1174 19.1395 21.5722 19.2256 20.9951C19.5448 18.6922 19.7179 16.3721 19.7439 14.0481C19.7764 12.8907 19.7098 11.7326 19.5448 10.5861C19.4167 9.41211 19.3383 8.24447 19.2634 7.07489C19.1184 4.73679 19.0091 2.39823 18.9355 0.0592052C18.935 0.0442349 18.9404 0.0296527 18.9507 0.0186029C18.961 0.00755308 18.9753 0.000914731 18.9906 8.76206e-05C19.0058 -0.00073949 19.0207 0.00431429 19.0322 0.0141816C19.0437 0.024049 19.0508 0.0379385 19.0519 0.0528726L19.0519 0.052776Z" fill="#020202"/>
</svg>
