<svg width="2" height="53" viewBox="0 0 2 53" fill="none" xmlns="http://www.w3.org/2000/svg">
<path d="M0.106431 0C0.328918 4.41935 0.512227 8.83859 0.65635 13.2577C0.811933 17.6768 0.92731 22.0969 1.05749 26.5155L1.40599 39.771C1.46514 41.9799 1.52861 44.1883 1.61001 46.3948C1.65203 47.4974 1.67364 48.605 1.74716 49.7033C1.78082 50.253 1.80422 50.8063 1.84641 51.3547L2 53L1.72282 51.3801C1.64738 50.8348 1.59468 50.2859 1.52943 49.7381C1.39363 48.6422 1.31012 47.541 1.20588 46.4407C1.02766 44.2374 0.876506 42.0304 0.761558 39.8214C0.62656 37.6133 0.549287 35.4021 0.447745 33.192L0.231391 26.5577C0.117553 22.1335 0.0372775 17.7085 0.0135864 13.282C-0.0208212 8.85596 0.0101232 4.42863 0.106431 0Z" fill="#020202"/>
</svg>
