<svg width="53" height="17" viewBox="0 0 53 17" fill="none" xmlns="http://www.w3.org/2000/svg">
<path d="M0 5.56088C0.490012 6.67621 1.03452 7.76558 1.58795 8.84709C2.1485 9.92505 2.74426 10.9844 3.39747 12.0027C4.03386 13.0205 4.76418 13.977 5.57895 14.8596C5.9715 15.2858 6.4222 15.6549 6.91782 15.9562C7.35782 16.2419 7.89108 16.3486 8.40765 16.2541C8.42363 16.2502 8.4399 16.2474 8.45629 16.2459L8.47659 16.2442C10.7759 16.0362 13.0595 15.681 15.313 15.1807C17.5704 14.6999 19.7978 14.0887 21.984 13.3503C24.1665 12.6219 26.2929 11.7359 28.3462 10.6994L29.8665 9.89408C30.366 9.61359 30.8439 9.29743 31.3356 9.00436L32.0696 8.55849C32.3082 8.40121 32.5367 8.22931 32.7708 8.06549L34.1682 7.07169L34.0859 7.14997L36.7563 4.05553L38.0961 2.51221L38.7806 1.73391C39.0366 1.45568 39.3213 1.20504 39.6299 0.986117C40.5608 0.328095 41.678 -0.0170982 42.8193 0.000651793C43.1999 0.00989882 43.5119 0.0362429 43.8615 0.0531842L47.9494 0.311397L49.9933 0.44269L51.0152 0.508297C51.2103 0.513369 51.4044 0.538123 51.5944 0.582183C51.7989 0.637324 51.9932 0.724945 52.1697 0.841672C52.5201 1.0781 52.7812 1.42436 52.9116 1.82551C53.0305 2.21469 53.0294 2.63048 52.9085 3.01902C52.7097 3.75838 52.2396 4.39642 51.5912 4.80682C51.2726 5.00866 50.9178 5.14713 50.5463 5.21458C50.1905 5.26677 49.83 5.27981 49.4713 5.25346L47.4235 5.19872L43.3278 5.08511L43.3938 4.98012C43.6401 5.62318 43.7242 6.31664 43.6388 6.99964C43.6746 6.32689 43.5452 5.65558 43.2618 5.04395C43.2576 5.03523 43.2552 5.02578 43.2548 5.01614C43.2543 5.00649 43.2557 4.99684 43.2589 4.98774C43.2622 4.97865 43.2672 4.97028 43.2737 4.96312C43.2802 4.95596 43.2881 4.95014 43.2968 4.946C43.3066 4.94163 43.3171 4.93922 43.3278 4.93889L47.4235 4.82523L49.4713 4.7705C49.7947 4.77828 50.118 4.75074 50.4354 4.68837C50.7335 4.61539 51.0159 4.48972 51.2694 4.31732C52.2691 3.68206 52.7794 2.0197 51.774 1.44282C51.663 1.37548 51.542 1.3259 51.4156 1.2959C51.2716 1.26954 51.1254 1.25746 50.979 1.2598L49.9555 1.22754L47.9084 1.16306L43.8145 1.02975C43.4822 1.01898 43.1128 0.996752 42.8109 0.995479C42.5048 0.996033 42.1997 1.02858 41.9004 1.09257C40.999 1.2843 40.1831 1.75903 39.5724 2.44704L38.9204 3.21456L37.5984 4.77307L34.9454 7.8823L34.9395 7.88923C34.9166 7.91571 34.891 7.93967 34.863 7.96072C32.9845 9.39504 30.9744 10.6495 28.8593 11.7073C26.7537 12.7628 24.5691 13.6539 22.325 14.3724C20.0883 15.0902 17.81 15.6721 15.5025 16.115C13.1931 16.5498 10.8578 16.8354 8.5113 16.9699L8.58 16.9601C7.88114 17.0805 7.16264 16.9262 6.57564 16.5295C6.03734 16.1806 5.55128 15.7575 5.13188 15.2729C4.32274 14.335 3.61608 13.314 3.02385 12.2271C1.83154 10.0927 0.820083 7.8629 0 5.56088Z" fill="#020202"/>
</svg>
