<svg width="5" height="4" viewBox="0 0 5 4" fill="none" xmlns="http://www.w3.org/2000/svg">
<path d="M5 2.00132C4.99879 2.48718 4.77534 2.95614 4.37119 3.321C3.96704 3.68585 3.40972 3.92176 2.80287 3.98484C2.46008 4.01879 2.11212 3.99557 1.78127 3.91668C1.45042 3.83778 1.14395 3.70494 0.881469 3.52665C0.605053 3.33757 0.383229 3.1034 0.231115 2.84012C0.0790017 2.57683 0.000174958 2.2906 2.90906e-07 2.00094C-0.000174376 1.71128 0.0783083 1.425 0.230104 1.1616C0.381901 0.898197 0.603443 0.663865 0.879631 0.474574C1.1421 0.295729 1.44881 0.162477 1.78004 0.083386C2.11128 0.00429532 2.4597 -0.0188821 2.80289 0.0153465C3.40998 0.0790137 3.96731 0.315434 4.3714 0.680687C4.77548 1.04594 4.99885 1.51521 5 2.00132ZM5 2.00132C4.99936 1.77484 4.93599 1.55123 4.8144 1.34634C4.6928 1.14146 4.51596 0.960303 4.29637 0.815704C4.09018 0.681551 3.85027 0.583892 3.59271 0.529262C3.33515 0.474632 3.06586 0.464293 2.80285 0.498927C2.35712 0.560852 1.95317 0.745575 1.66209 1.02061C1.371 1.29564 1.21141 1.64336 1.21141 2.00259C1.21141 2.36181 1.371 2.70953 1.66209 2.98456C1.95317 3.25959 2.35712 3.44432 2.80285 3.50625C3.06613 3.54062 3.33563 3.52995 3.59329 3.47497C3.85096 3.41998 4.09086 3.32196 4.29695 3.18743C4.51641 3.04267 4.69314 2.86139 4.81462 2.65643C4.93611 2.45148 4.99939 2.22784 5 2.00132Z" fill="#020202"/>
</svg>
