<svg width="18" height="27" viewBox="0 0 18 27" fill="none" xmlns="http://www.w3.org/2000/svg">
<path d="M0.042651 27C-0.0237847 26.2902 -0.0125802 25.5753 0.0760745 24.868C0.11697 24.5058 0.191096 24.1482 0.2975 23.7999C0.421457 23.4393 0.61377 23.1067 0.863679 22.8205C1.37937 22.2306 2.1015 21.8659 2.87801 21.8032C3.26866 21.7706 3.66193 21.8099 4.03872 21.9191C4.36893 22.0116 4.7015 22.0935 5.03435 22.1697C6.33985 22.4963 7.6921 22.5878 9.02905 22.44C9.65265 22.3824 10.2569 22.1911 10.8015 21.8788C11.3461 21.5665 11.8186 21.1404 12.1872 20.629L12.2054 20.6047L12.231 20.5732C12.402 20.3546 12.5468 20.1163 12.6625 19.8634C13.03 19.0783 13.1024 18.185 12.8662 17.3499L12.8609 17.3304C12.8557 17.3104 12.8518 17.29 12.8494 17.2694C12.8119 16.9254 12.8064 16.5786 12.8333 16.2336C12.8556 15.8799 12.9234 15.5308 13.035 15.1949C13.1551 14.8208 13.3564 14.4785 13.6244 14.1933C13.9231 13.9042 14.2954 13.7044 14.6997 13.6162C14.7287 13.6096 14.7583 13.6059 14.7881 13.6052L14.8216 13.6048C15.4041 13.6146 15.9783 13.4646 16.483 13.1706C16.6863 13.0402 16.8412 12.8456 16.9235 12.617C16.9625 12.498 16.9842 12.3739 16.9879 12.2486L16.9919 12.152L16.9947 12.1034L16.9964 12.0791C16.9946 12.0575 17.0011 12.1125 17.0008 12.1058L17.0012 12.1068C16.9877 12.051 16.9702 11.9962 16.9489 11.943C16.6706 11.3524 16.3185 10.8004 15.9011 10.3004C15.4426 9.72836 15.0485 9.10653 14.7262 8.44638C14.087 7.12894 13.7852 5.67045 13.8486 4.20459C13.8889 2.78969 14.0619 1.38185 14.3655 0C14.2479 1.3985 14.231 2.80378 14.3149 4.20475C14.3856 5.56458 14.7678 6.88926 15.4314 8.07446C15.7566 8.66108 16.1455 9.20925 16.5909 9.7088C17.1049 10.2566 17.5352 10.8788 17.8677 11.5548C17.9152 11.6632 17.9535 11.7754 17.9823 11.8902L17.9892 11.9235C17.993 11.9431 17.9956 11.9629 17.9971 11.9829L17.9979 12.0245L17.9992 12.1078L18 12.2749C17.9992 12.5012 17.9657 12.7261 17.9007 12.9427C17.759 13.3861 17.4794 13.7715 17.1034 14.0414C16.4228 14.5003 15.6197 14.7385 14.8016 14.7243L14.9232 14.7129C14.7344 14.759 14.5606 14.8537 14.4187 14.9878C14.2741 15.1527 14.1665 15.3472 14.1034 15.558C14.0253 15.8037 13.9795 16.0587 13.9671 16.3164C13.9496 16.5816 13.9556 16.8479 13.9851 17.112L13.9684 17.0318C14.173 17.7655 14.1959 18.5388 14.0352 19.2836C13.9567 19.652 13.8349 20.0095 13.6722 20.3485C13.5086 20.6985 13.301 21.0256 13.0544 21.3218L13.098 21.2661C12.635 21.8957 12.0419 22.4161 11.36 22.7911C10.6781 23.1662 9.92371 23.3869 9.149 23.438C7.69432 23.5475 6.23221 23.3811 4.83807 22.9475C4.49345 22.8499 4.15484 22.7339 3.81836 22.6144C3.52833 22.5065 3.22132 22.4528 2.91228 22.4559C2.27681 22.4679 1.66746 22.7136 1.19848 23.1471C0.960975 23.3698 0.768732 23.6371 0.632509 23.9341C0.501491 24.2506 0.399405 24.5786 0.32753 24.9139C0.173275 25.5996 0.0779649 26.2976 0.042651 27Z" fill="#020202"/>
</svg>
