<svg width="5" height="14" viewBox="0 0 5 14" fill="none" xmlns="http://www.w3.org/2000/svg">
<path d="M5 0C3.54712 0.416461 2.08203 0.739778 0.614982 1.04777L0.954706 0.638969C1.00831 1.71569 1.05468 2.79242 1.07746 3.86914C1.11738 4.94587 1.1069 6.02255 1.12304 7.09928C1.11531 9.25272 1.08914 11.4061 0.973577 13.5596L0.400136 13.1617C1.13564 12.8671 1.88458 12.5552 2.60906 12.2088C2.97535 12.0403 3.32866 11.8492 3.682 11.6542C4.03991 11.4647 4.37199 11.2256 4.66935 10.9435C4.4459 11.3075 4.16661 11.6301 3.84279 11.8984C3.52794 12.1759 3.19802 12.4339 2.85467 12.6712C2.17086 13.1471 1.45887 13.5768 0.723022 13.9576C0.664338 13.9877 0.599477 14.0022 0.534189 13.9997C0.468901 13.9973 0.405197 13.9779 0.348728 13.9435C0.292258 13.909 0.244769 13.8604 0.210458 13.802C0.176147 13.7437 0.15607 13.6774 0.152022 13.6089L0.149457 13.5596C0.0338948 11.4061 0.00773031 9.25272 0 7.09928C0.0161826 6.02255 0.00564988 4.94587 0.0455961 3.86914C0.06837 2.79242 0.114746 1.71569 0.168366 0.638969L0.170665 0.592513C0.175332 0.499355 0.212168 0.41118 0.274289 0.344466C0.336409 0.277753 0.419556 0.23707 0.508176 0.230043C2.00004 0.112131 3.49393 0.0094536 5 0Z" fill="#020202"/>
</svg>
