<svg width="35" height="27" viewBox="0 0 35 27" fill="none" xmlns="http://www.w3.org/2000/svg">
<path d="M20.6891 12.6995C20.6891 12.6995 24.3319 17.2214 29.7734 15.73C29.7734 15.73 41.1924 10.7322 30.2736 5.415C19.3547 0.0978088 18.9703 1.36998 14.7871 0.553951C13.6812 0.338229 6.1388 -1.58799 2.10637 3.29875C1.37414 4.21421 0.835256 5.2678 0.522136 6.39616C0.209016 7.52453 0.128125 8.70436 0.284326 9.86469C0.360743 10.4951 0.450401 11.1795 0.544439 11.7838C0.697968 12.7649 0.679647 13.765 0.490292 14.7398C-0.264085 18.7757 -0.146802 22.9255 0.834314 26.9127C0.834314 26.9127 7.58321 27.9133 11.4311 23.139C11.4311 23.139 12.3603 13.9734 17 19.5C17 19.5 20.6891 21.6476 20.6891 12.6995Z" fill="#020202"/>
</svg>
