<svg width="9" height="2" viewBox="0 0 9 2" fill="none" xmlns="http://www.w3.org/2000/svg">
<path d="M0.281226 1.49381C1.76031 1.40704 3.24929 1.26703 4.71858 1.05764C5.45446 0.954504 6.18556 0.827053 6.90658 0.665361C7.63399 0.518919 8.33722 0.295409 9 0C8.35714 0.334044 7.66817 0.598256 6.94899 0.786544C6.23576 0.990264 5.50924 1.16015 4.77708 1.30565C3.31156 1.60015 1.83386 1.8245 0.335486 1.99772C0.25772 2.00671 0.17896 1.98888 0.116544 1.94818C0.0541273 1.90748 0.0131676 1.84722 0.00266379 1.78066C-0.00784003 1.71411 0.0129787 1.64671 0.0605402 1.5933C0.108102 1.53988 0.178502 1.50482 0.256268 1.49584L0.274819 1.4942L0.281226 1.49381Z" fill="#020202"/>
</svg>
