<svg width="12" height="1" viewBox="0 0 12 1" fill="none" xmlns="http://www.w3.org/2000/svg">
<path d="M4.08391e-05 0.947645C-0.000871095 0.908962 0.0134993 0.870629 0.0421689 0.835214C0.0708386 0.799799 0.113149 0.768124 0.166252 0.742336C0.265806 0.687727 0.377682 0.64018 0.499223 0.600828C0.735245 0.523167 0.98372 0.457262 1.24161 0.403919C1.74881 0.301093 2.27104 0.221637 2.80278 0.166376C4.91234 -0.0524648 7.0786 -0.055444 9.19017 0.157591C9.72348 0.212119 10.2473 0.291143 10.756 0.393809C11.017 0.446061 11.2681 0.511917 11.5057 0.590464C11.6315 0.631211 11.7459 0.68159 11.8452 0.740049C11.9071 0.769286 11.9531 0.807149 11.9783 0.849555C12.0035 0.891961 12.0068 0.937296 11.988 0.980659C11.9862 0.984042 11.9832 0.9872 11.9791 0.98995C11.975 0.992699 11.97 0.994983 11.9643 0.99668C11.9587 0.998377 11.9524 0.999451 11.946 0.999838C11.9395 1.00022 11.933 0.99992 11.9268 0.998937L11.9218 0.997985L11.6959 0.947645L11.9565 0.945327L11.8905 0.962614C11.8443 0.858367 11.5729 0.814546 11.349 0.778659C11.105 0.745925 10.8574 0.721654 10.6077 0.705993C10.1033 0.672292 9.59094 0.653183 9.07885 0.63875C8.56648 0.62517 8.0528 0.611789 7.53814 0.610412C7.0247 0.59663 6.50913 0.600975 5.99447 0.598136C4.96485 0.594207 3.93569 0.602973 2.90697 0.62443C2.3943 0.639353 1.87868 0.650263 1.37122 0.683798C1.118 0.697075 0.866616 0.719196 0.618637 0.750038C0.386455 0.787921 0.10575 0.811426 4.08391e-05 0.947645Z" fill="#020202"/>
</svg>
