<svg width="4" height="12" viewBox="0 0 4 12" fill="none" xmlns="http://www.w3.org/2000/svg">
<path d="M0 0.276451C0.894298 0.14995 1.78857 0.0760673 2.68287 0.00138978C2.76244 -0.0052437 2.84226 0.0120362 2.90594 0.0496505C2.96961 0.0872647 3.0123 0.142367 3.02523 0.203646L3.03672 0.259068C3.43015 2.15664 3.67352 4.06164 3.83806 5.9705C3.90253 6.92581 3.96906 7.88102 3.98643 8.83864C4.01289 9.79583 3.99926 10.755 3.95765 11.7156L3.9553 11.7699C3.95259 11.8288 3.92081 11.8847 3.86655 11.9259C3.81228 11.9672 3.73967 11.9906 3.66371 11.9915C2.8295 11.9999 1.99572 12.0111 1.15424 11.9749C1.95746 11.7768 2.76846 11.6263 3.57897 11.4729L3.2852 11.7487C3.08717 10.8 2.91715 9.8499 2.78719 8.89783C2.64813 7.94618 2.55825 6.99212 2.4663 6.03817C2.31807 4.12851 2.24859 2.21492 2.3292 0.293923L2.68287 0.551458C1.78859 0.476839 0.894298 0.402951 0 0.276451Z" fill="#020202"/>
</svg>
