<svg width="28" height="36" viewBox="0 0 28 36" fill="none" xmlns="http://www.w3.org/2000/svg">
<path d="M5.17433 0.0848499C4.09643 2.64235 3.45586 5.36073 3.27902 8.12787C3.17835 9.50094 3.16858 10.8791 3.24977 12.2534C3.35212 13.6121 3.51726 15.0272 3.5614 16.4374C3.63225 17.8538 3.60325 19.2733 3.4746 20.6857C3.41183 21.4103 3.27973 22.1274 3.08009 22.8271C3.03259 23.0109 2.96861 23.1901 2.8889 23.3626C2.8213 23.55 2.73066 23.7283 2.61905 23.8936L2.44858 24.1538L2.31682 24.3455C2.22117 24.47 2.14023 24.6049 2.07557 24.7478C1.7793 25.3529 1.54676 25.9869 1.38163 26.6395C1.19746 27.3008 1.04824 27.9774 0.919286 28.6587C0.65918 30.0246 0.475462 31.4039 0.368962 32.79L0.258466 32.6113C2.42278 33.4886 4.67178 34.1436 6.97031 34.5659C9.26246 34.986 11.589 35.1933 13.9198 35.185C16.2306 35.1712 18.5321 34.8928 20.7787 34.3553C22.9993 33.7941 25.1238 32.9085 27.0826 31.7274L26.802 32.2979C26.5359 30.0378 26.2284 27.7728 25.8987 25.5232C25.7334 24.398 25.5337 23.2794 25.3109 22.1785C25.2069 21.6379 25.0722 21.1036 24.9076 20.5781C24.8709 20.46 24.8261 20.3445 24.7733 20.2326L24.5813 19.784C24.4879 19.4746 24.4265 19.1566 24.398 18.8349C24.294 16.5154 24.411 14.1914 24.7475 11.8938C25.0145 9.61352 25.3681 7.34769 25.7884 5.09351C25.7897 5.08616 25.7926 5.07916 25.7966 5.0729C25.8007 5.06663 25.806 5.06123 25.8122 5.057C25.8184 5.05278 25.8254 5.0498 25.8328 5.04825C25.8401 5.0467 25.8477 5.04661 25.8551 5.04798C25.869 5.05071 25.8815 5.05845 25.8901 5.06972C25.8987 5.08099 25.9028 5.095 25.9017 5.10909C25.7107 7.39058 25.5444 9.67113 25.4029 11.9508C25.3372 13.09 25.2902 14.2295 25.2726 15.3645C25.2264 16.4823 25.263 17.6019 25.3821 18.7143C25.4128 18.962 25.4676 19.206 25.5457 19.4432L25.7066 19.7776C25.7814 19.9221 25.8464 20.0713 25.9014 20.2243C26.1014 20.7841 26.269 21.3549 26.4032 21.9337C26.6795 23.0666 26.8825 24.2022 27.0752 25.337C27.463 27.6078 27.7484 29.8822 27.994 32.1699L27.9969 32.1965C28.0084 32.3048 27.9877 32.4141 27.9373 32.5108C27.8869 32.6075 27.809 32.6874 27.7133 32.7406C25.6271 33.9435 23.3721 34.8307 21.0227 35.373C18.6861 35.8745 16.2945 36.0765 13.9062 35.9742C11.5403 35.8501 9.18981 35.5205 6.88177 34.989C4.57625 34.4795 2.31293 33.797 0.111292 32.9474C0.0769397 32.9339 0.0477286 32.91 0.0278004 32.8791C0.00787225 32.8483 -0.00176281 32.8119 0.000265442 32.7753L0.000708623 32.7685C0.0810602 31.3651 0.205916 29.9713 0.380813 28.5735C0.470181 27.8753 0.580391 27.1777 0.729798 26.4822C0.866358 25.7697 1.07806 25.0736 1.3614 24.4052C1.43266 24.2256 1.52288 24.0541 1.63054 23.8935L1.78461 23.6451L1.88714 23.4572C1.96477 23.3281 2.02463 23.1892 2.06515 23.0442C2.12456 22.8958 2.16939 22.742 2.19901 22.585C2.34852 21.9313 2.44447 21.2667 2.48591 20.5977C2.58567 19.2368 2.58323 17.8542 2.5482 16.4721C2.52993 15.7815 2.49798 15.0882 2.44975 14.4016C2.40457 13.7171 2.32633 12.9994 2.31842 12.2946C2.2719 10.8771 2.33697 9.45825 2.51303 8.05088C2.82165 5.23398 3.69269 2.50654 5.07519 0.0282359C5.0825 0.015711 5.09436 0.00644235 5.10833 0.00233165C5.1223 -0.00177905 5.13732 -0.000419099 5.15032 0.00613208C5.16331 0.0126833 5.17329 0.0239289 5.1782 0.0375599C5.18311 0.0511908 5.18259 0.0661743 5.17674 0.0794316L5.17433 0.0848499Z" fill="#020202"/>
</svg>
