<svg width="45" height="42" viewBox="0 0 45 42" fill="none" xmlns="http://www.w3.org/2000/svg">
<path d="M23.4162 0L12.8223 10.8927C14.0667 11.1393 14.6776 11.5464 14.9039 12.0107C14.905 12.0228 14.9088 12.0346 14.9151 12.0451C14.9151 12.0508 14.9207 12.0508 14.9207 12.0565C14.9879 12.2323 15.0166 12.4206 15.0049 12.6087C14.9932 12.7968 14.9413 12.98 14.8529 13.1458C14.8473 13.163 14.8416 13.1744 14.836 13.1917C14.5431 13.7596 14.1389 14.261 13.6481 14.6651L13.6425 14.6708C13.5423 14.7465 13.4292 14.8029 13.3088 14.8371H13.2975C12.8426 14.9579 12.3759 15.0271 11.906 15.0434C10.4808 15.1352 8.75564 15.0434 8.75564 15.0434L0 24.5201L14.9774 42L45 13.0369L23.4162 0ZM10.2771 29.6053C10.0573 29.5974 9.84914 29.5033 9.69642 29.3429C9.54369 29.1825 9.45835 28.9683 9.45835 28.7454C9.45835 28.5224 9.54369 28.3082 9.69642 28.1478C9.84914 27.9874 10.0573 27.8933 10.2771 27.8854C10.4969 27.8933 10.7051 27.9874 10.8578 28.1478C11.0105 28.3082 11.0959 28.5224 11.0959 28.7454C11.0959 28.9683 11.0105 29.1825 10.8578 29.3429C10.7051 29.5033 10.4969 29.5974 10.2771 29.6053ZM8.91969 21.0001L23.8517 4.94194L36.8834 13.8797L19.2364 30.127L8.91969 21.0001Z" fill="#020202"/>
</svg>
