<svg width="47" height="18" viewBox="0 0 47 18" fill="none" xmlns="http://www.w3.org/2000/svg">
<path d="M11.4475 13.6627C7.62774 13.7168 3.80813 13.8976 0 14.2289C0.598907 13.3479 1.00139 12.3396 1.17827 11.2771C1.49175 8.24103 5.84553 5.42166 5.84553 5.42166L5.82822 4.60849L9.64202 3.90365C10.2733 5.07833 11.1775 6.0706 12.2724 6.79023C13.3674 7.50985 14.6183 7.934 15.9115 8.02409C20.3001 8.26507 35.9853 1.01215 37.9589 0C52.1696 8.1325 45.3778 18 45.3778 18C44.5669 17.4633 43.6954 17.0323 42.7829 16.7168C41.8773 16.3795 40.9486 16.1144 40.0198 15.8674C38.1506 15.4036 36.2581 15.0722 34.3541 14.8012C30.5576 14.253 26.7379 13.9879 22.9124 13.8012C19.0927 13.6446 15.273 13.5903 11.4475 13.6627Z" fill="#020202"/>
</svg>
