<svg width="6" height="12" viewBox="0 0 6 12" fill="none" xmlns="http://www.w3.org/2000/svg">
<path d="M4.61175 11.9801C4.00389 12.0451 3.39087 11.9505 2.82127 11.7037C2.25168 11.457 1.74115 11.0649 1.33012 10.5586C0.484004 9.5132 0.0105445 8.15526 0 6.7436C0.0118913 6.05367 0.116971 5.36972 0.311664 4.71511C0.487655 4.07791 0.699532 3.4539 0.946025 2.84681C1.17289 2.21881 1.50035 1.64266 1.91221 1.14685C2.35037 0.640035 2.90517 0.279221 3.51508 0.10444C3.83183 0.016057 4.15891 -0.0165371 4.48459 0.00782875C4.86071 0.024765 5.2218 0.177969 5.51371 0.444457C5.80008 0.76772 5.9718 1.19675 5.99682 1.65153C6.02184 2.1063 5.89847 2.55576 5.6497 2.91604C5.59589 3.00373 5.53697 3.08733 5.47334 3.1663L5.33165 3.34488C5.2425 3.46083 5.1544 3.57641 5.07156 3.69661C4.90501 3.93244 4.75091 4.17901 4.61009 4.43506C4.33119 4.9065 4.12969 5.43003 4.01508 5.98097C3.90695 6.47222 3.95688 6.99051 4.15609 7.44454C4.27114 7.68165 4.40912 7.90385 4.56753 8.10711C4.73922 8.33305 4.96982 8.60243 5.14687 8.87311C5.56641 9.40713 5.83483 10.069 5.91797 10.7745C5.92163 10.9628 5.88398 11.1493 5.80835 11.3175C5.72701 11.4752 5.60986 11.606 5.46883 11.6965C5.20546 11.8612 4.91269 11.9581 4.61175 11.9801ZM4.59978 11.8598C4.87768 11.827 5.14458 11.7203 5.37832 11.5486C5.48267 11.4683 5.56236 11.3539 5.60646 11.221C5.65057 11.088 5.65695 10.943 5.6247 10.8058C5.4322 10.2423 5.08695 9.76068 4.63756 9.42871C4.41896 9.22427 4.19554 9.08775 3.95366 8.8596C3.82915 8.73811 3.69427 8.62877 3.57749 8.49029C3.47078 8.33989 3.35453 8.1963 3.2584 8.03261C2.87914 7.34782 2.7455 6.52728 2.88438 5.73638C3.01646 5.01508 3.28494 4.33392 3.67171 3.73883C3.85133 3.45415 4.04565 3.18152 4.2537 2.92233C4.35554 2.79275 4.46282 2.66847 4.56987 2.54608L4.72703 2.37154C4.76295 2.33268 4.79655 2.29121 4.82761 2.24739C4.94923 2.10112 5.02391 1.91359 5.03985 1.71442C5.0558 1.51525 5.01211 1.3158 4.91568 1.14758C4.73402 0.986788 4.525 0.869273 4.30142 0.802221C4.07784 0.735169 3.84442 0.719988 3.61543 0.757628C3.07886 0.810486 2.57076 1.05149 2.16325 1.44643C1.75437 1.87193 1.44694 2.40539 1.269 2.99821C1.07553 3.59586 0.951572 4.21897 0.900161 4.85215C0.832564 5.46236 0.831614 6.07954 0.89735 6.69001C1.0353 7.8879 1.37104 9.0465 1.88738 10.1065C2.14142 10.6504 2.51815 11.1102 2.98003 11.44C3.46305 11.7786 4.03321 11.9264 4.59978 11.8598V11.8598Z" fill="#020202"/>
</svg>
