<svg width="61" height="26" viewBox="0 0 61 26" fill="none" xmlns="http://www.w3.org/2000/svg">
<path d="M50.5687 26H0C0 26 0.817821 16.1516 0.307467 14.8563C2.70881 7.15346 7.76117 3.82829 7.76117 3.82829C9.0071 2.6814 10.1182 1.39707 11.0732 0C14.8899 0.13299 18.7008 0.250578 22.506 0.352753C26.3168 0.468452 30.122 0.572511 33.9214 0.746024C35.8239 0.815346 37.7207 0.913671 39.6175 1.02938C41.5143 1.13343 43.411 1.28379 45.3019 1.44572C47.187 1.62503 49.0781 1.82156 50.9459 2.12807C52.8307 2.3651 54.6723 2.86746 56.4157 3.62012C60.6964 5.38966 60.9053 11.6352 60.9053 11.6352C62.1581 23.71 50.5687 26 50.5687 26Z" fill="#020202"/>
</svg>
