<svg width="26" height="77" viewBox="0 0 26 77" fill="none" xmlns="http://www.w3.org/2000/svg">
<path d="M10.4689 0C11.8983 0.48128 13.2334 1.19882 14.4166 2.12164C15.6119 3.03883 16.6904 4.09401 17.6287 5.26437C18.0878 5.85864 18.5153 6.47578 18.9096 7.11332C19.0997 7.43606 19.3173 7.74552 19.4849 8.08038L19.986 9.08659C20.336 9.75158 20.5631 10.4668 20.8575 11.1561C21.1043 11.8615 21.3087 12.5809 21.5361 13.2941C21.5408 13.3088 21.5438 13.324 21.545 13.3394L21.5469 13.3665C21.6455 14.8226 21.8236 16.2725 22.0803 17.7099C22.2048 18.4221 22.3671 19.1274 22.5667 19.8229C22.7426 20.496 23.0073 21.1437 23.354 21.7495C23.3717 21.7777 23.3861 21.8078 23.3969 21.8392L23.4011 21.8519C23.7581 22.9088 24.14 23.9685 24.5479 25.0081C24.7512 25.5288 24.9645 26.0442 25.1896 26.5499C25.4029 27.0471 25.6477 27.5307 25.9226 27.9978C25.9824 28.0953 26.0087 28.2092 25.9975 28.3225C25.9863 28.4359 25.9383 28.5427 25.8605 28.6272C25.1827 29.3547 24.4886 30.0207 23.7597 30.6729C23.0301 31.3193 22.2731 31.9359 21.4885 32.523C19.915 33.7273 18.174 34.7043 16.3185 35.4243L16.7012 34.8851C16.7228 37.2227 16.7031 39.5569 16.6762 41.8944L16.6047 45.4029C16.5619 46.5814 16.5395 47.73 16.3837 48.9595C16.381 48.9817 16.3763 49.0036 16.3699 49.0251L16.3646 49.0421C16.3172 49.1964 16.2916 49.3563 16.2887 49.5175C16.288 49.5619 16.2936 49.6061 16.3055 49.6489C16.2925 49.6301 16.2739 49.6157 16.2523 49.6076L16.247 49.6036L16.2403 49.6036C16.2157 49.599 16.2844 49.6162 16.3329 49.635C16.3807 49.6522 16.4266 49.674 16.4699 49.7003C16.5819 49.773 16.6766 49.8686 16.7475 49.9806C16.8317 50.1142 16.8968 50.2586 16.941 50.4096C17.0125 50.6461 17.0658 50.8876 17.1004 51.132C17.2183 52.0312 17.2732 52.9373 17.2647 53.8439C17.2652 53.927 17.2445 54.0089 17.2045 54.0822C17.1644 54.1554 17.1063 54.2177 17.0355 54.2632L17.0236 54.2706C15.9504 54.9473 14.9619 55.7458 14.0789 56.6495C13.6514 57.0946 13.2766 57.5857 12.9616 58.1134L12.7557 58.511L12.602 58.9209C12.5194 59.2034 12.4816 59.4465 12.4023 59.8298C12.0338 61.1415 11.3773 62.3582 10.4789 63.3944C9.64719 64.4287 8.72772 65.3919 7.73033 66.2736L7.70284 66.2953L7.69315 66.3018C6.78615 66.9404 5.94507 67.6647 5.18197 68.4644C4.4045 69.2683 3.69144 70.1299 3.04916 71.0416C2.40544 71.9576 1.83096 72.9186 1.33034 73.917C0.821819 74.9164 0.377501 75.9461 0 77C0.311763 75.9209 0.69605 74.8633 1.15032 73.8341C1.61065 72.8028 2.14735 71.8061 2.75611 70.8518C3.36833 69.8945 4.05495 68.985 4.80987 68.1315C5.56259 67.2584 6.41376 66.4719 7.34705 65.7871L7.3101 65.8152C8.2513 64.9356 9.11527 63.9796 9.89283 62.9574C10.6868 61.9938 11.2601 60.8736 11.5739 59.6731C11.6234 59.4218 11.6732 59.0187 11.7671 58.6786L11.9418 58.1719L12.1709 57.6963C12.5057 57.0951 12.9093 56.5334 13.3739 56.0221C14.2923 55.0273 15.3366 54.1519 16.4814 53.4174L16.2404 53.844C16.2361 52.9909 16.173 52.1391 16.0515 51.2945C15.9998 50.9224 15.8336 50.3964 15.8014 50.5719C15.5765 50.4673 15.3992 50.2845 15.3037 50.0589C15.237 49.8955 15.2015 49.7215 15.199 49.5455C15.1948 49.2662 15.234 48.988 15.3151 48.7203L15.296 48.8025C15.4141 47.7134 15.44 46.5253 15.4755 45.3727L15.5301 41.8824L15.5402 34.8919C15.5406 34.7745 15.5774 34.66 15.6458 34.5636C15.7142 34.4672 15.8109 34.3936 15.923 34.3526C17.6742 33.6783 19.3187 32.7626 20.8068 31.6329C21.5644 31.0716 22.2988 30.4789 23.0101 29.8548C23.7176 29.2348 24.4192 28.5819 25.0564 27.9155L24.9943 28.5447C24.7012 28.0334 24.4415 27.5042 24.217 26.9605C23.9903 26.4313 23.7796 25.9004 23.5799 25.3671C23.1787 24.2998 22.8099 23.231 22.4609 22.1457L22.5079 22.2479C22.1322 21.5585 21.8516 20.8231 21.6733 20.0611C21.4853 19.3317 21.3364 18.5932 21.2271 17.8485C21.0051 16.3738 20.8641 14.8885 20.8046 13.3989L20.8153 13.471C20.6126 12.7729 20.4332 12.066 20.212 11.3726C19.9438 10.6969 19.7424 9.99128 19.4196 9.33724C18.832 8.00087 18.1125 6.72414 17.2717 5.52528C16.4036 4.33882 15.3933 3.25918 14.2625 2.30962C13.1325 1.3447 11.8516 0.564824 10.4689 0Z" fill="#020202"/>
</svg>
